<mxfile host="app.diagrams.net" modified="2022-12-14T11:05:07.803Z" agent="5.0 (Windows NT 10.0; Win64; x64) AppleWebKit/537.36 (KHTML, like Gecko) Chrome/108.0.0.0 Safari/537.36" etag="s65bcgNdWmZJV4zKMjpJ" version="20.6.2" type="github">
  <diagram id="C5RBs43oDa-KdzZeNtuy" name="Page-1">
    <mxGraphModel dx="1221" dy="3019" grid="1" gridSize="10" guides="1" tooltips="1" connect="1" arrows="1" fold="1" page="1" pageScale="1" pageWidth="827" pageHeight="1169" math="0" shadow="0">
      <root>
        <mxCell id="WIyWlLk6GJQsqaUBKTNV-0" />
        <mxCell id="WIyWlLk6GJQsqaUBKTNV-1" parent="WIyWlLk6GJQsqaUBKTNV-0" />
        <mxCell id="WIyWlLk6GJQsqaUBKTNV-2" value="" style="rounded=0;html=1;jettySize=auto;orthogonalLoop=1;fontSize=11;endArrow=block;endFill=0;endSize=8;strokeWidth=1;shadow=0;labelBackgroundColor=none;edgeStyle=orthogonalEdgeStyle;" parent="WIyWlLk6GJQsqaUBKTNV-1" source="WIyWlLk6GJQsqaUBKTNV-3" target="WIyWlLk6GJQsqaUBKTNV-6" edge="1">
          <mxGeometry relative="1" as="geometry" />
        </mxCell>
        <mxCell id="WIyWlLk6GJQsqaUBKTNV-3" value="Lamp doesn&#39;t work" style="rounded=1;whiteSpace=wrap;html=1;fontSize=12;glass=0;strokeWidth=1;shadow=0;" parent="WIyWlLk6GJQsqaUBKTNV-1" vertex="1">
          <mxGeometry x="70" y="40" width="40" height="40" as="geometry" />
        </mxCell>
        <mxCell id="WIyWlLk6GJQsqaUBKTNV-4" value="Yes" style="rounded=0;html=1;jettySize=auto;orthogonalLoop=1;fontSize=11;endArrow=block;endFill=0;endSize=8;strokeWidth=1;shadow=0;labelBackgroundColor=none;edgeStyle=orthogonalEdgeStyle;" parent="WIyWlLk6GJQsqaUBKTNV-1" source="WIyWlLk6GJQsqaUBKTNV-6" target="WIyWlLk6GJQsqaUBKTNV-10" edge="1">
          <mxGeometry y="20" relative="1" as="geometry">
            <mxPoint as="offset" />
          </mxGeometry>
        </mxCell>
        <mxCell id="WIyWlLk6GJQsqaUBKTNV-5" value="No" style="edgeStyle=orthogonalEdgeStyle;rounded=0;html=1;jettySize=auto;orthogonalLoop=1;fontSize=11;endArrow=block;endFill=0;endSize=8;strokeWidth=1;shadow=0;labelBackgroundColor=none;" parent="WIyWlLk6GJQsqaUBKTNV-1" source="WIyWlLk6GJQsqaUBKTNV-6" target="WIyWlLk6GJQsqaUBKTNV-7" edge="1">
          <mxGeometry y="10" relative="1" as="geometry">
            <mxPoint as="offset" />
          </mxGeometry>
        </mxCell>
        <mxCell id="WIyWlLk6GJQsqaUBKTNV-6" value="Lamp&lt;br&gt;plugged in?" style="rhombus;whiteSpace=wrap;html=1;shadow=0;fontFamily=Helvetica;fontSize=12;align=center;strokeWidth=1;spacing=6;spacingTop=-4;" parent="WIyWlLk6GJQsqaUBKTNV-1" vertex="1">
          <mxGeometry x="65" y="120" width="50" height="40" as="geometry" />
        </mxCell>
        <mxCell id="WIyWlLk6GJQsqaUBKTNV-7" value="Plug in lamp" style="rounded=1;whiteSpace=wrap;html=1;fontSize=12;glass=0;strokeWidth=1;shadow=0;" parent="WIyWlLk6GJQsqaUBKTNV-1" vertex="1">
          <mxGeometry x="190" y="120" width="120" height="40" as="geometry" />
        </mxCell>
        <mxCell id="WIyWlLk6GJQsqaUBKTNV-8" value="No" style="rounded=0;html=1;jettySize=auto;orthogonalLoop=1;fontSize=11;endArrow=block;endFill=0;endSize=8;strokeWidth=1;shadow=0;labelBackgroundColor=none;edgeStyle=orthogonalEdgeStyle;" parent="WIyWlLk6GJQsqaUBKTNV-1" source="WIyWlLk6GJQsqaUBKTNV-10" target="WIyWlLk6GJQsqaUBKTNV-11" edge="1">
          <mxGeometry x="0.3333" y="20" relative="1" as="geometry">
            <mxPoint as="offset" />
          </mxGeometry>
        </mxCell>
        <mxCell id="WIyWlLk6GJQsqaUBKTNV-9" value="Yes" style="edgeStyle=orthogonalEdgeStyle;rounded=0;html=1;jettySize=auto;orthogonalLoop=1;fontSize=11;endArrow=block;endFill=0;endSize=8;strokeWidth=1;shadow=0;labelBackgroundColor=none;" parent="WIyWlLk6GJQsqaUBKTNV-1" source="WIyWlLk6GJQsqaUBKTNV-10" target="WIyWlLk6GJQsqaUBKTNV-12" edge="1">
          <mxGeometry y="10" relative="1" as="geometry">
            <mxPoint as="offset" />
          </mxGeometry>
        </mxCell>
        <mxCell id="WIyWlLk6GJQsqaUBKTNV-10" value="Bulb&lt;br&gt;burned out?" style="rhombus;whiteSpace=wrap;html=1;shadow=0;fontFamily=Helvetica;fontSize=12;align=center;strokeWidth=1;spacing=6;spacingTop=-4;" parent="WIyWlLk6GJQsqaUBKTNV-1" vertex="1">
          <mxGeometry x="40" y="230" width="100" height="80" as="geometry" />
        </mxCell>
        <mxCell id="WIyWlLk6GJQsqaUBKTNV-11" value="Repair Lamp" style="rounded=1;whiteSpace=wrap;html=1;fontSize=12;glass=0;strokeWidth=1;shadow=0;" parent="WIyWlLk6GJQsqaUBKTNV-1" vertex="1">
          <mxGeometry x="70" y="430" width="120" height="40" as="geometry" />
        </mxCell>
        <mxCell id="WIyWlLk6GJQsqaUBKTNV-12" value="Replace Bulb" style="rounded=1;whiteSpace=wrap;html=1;fontSize=12;glass=0;strokeWidth=1;shadow=0;" parent="WIyWlLk6GJQsqaUBKTNV-1" vertex="1">
          <mxGeometry x="190" y="250" width="120" height="40" as="geometry" />
        </mxCell>
        <mxCell id="xhn0Lpm8mwDRlb0D4wU6-0" value="&lt;blockquote style=&quot;margin: 0 0 0 40px ; border: none ; padding: 0px&quot;&gt;&lt;br&gt;&lt;/blockquote&gt;" style="rounded=1;whiteSpace=wrap;html=1;dashed=1;strokeColor=#FF8000;fillColor=none;strokeWidth=2;fontStyle=1;verticalAlign=top;arcSize=19;align=left;" vertex="1" parent="WIyWlLk6GJQsqaUBKTNV-1">
          <mxGeometry x="1038" y="-259.5" width="450" height="132" as="geometry" />
        </mxCell>
        <mxCell id="xhn0Lpm8mwDRlb0D4wU6-1" value="" style="endArrow=none;html=1;strokeColor=#6B6B6B;opacity=80;" edge="1" parent="WIyWlLk6GJQsqaUBKTNV-1">
          <mxGeometry width="50" height="50" relative="1" as="geometry">
            <mxPoint x="971.5" y="-339.5" as="sourcePoint" />
            <mxPoint x="971.5" y="-1529.5" as="targetPoint" />
          </mxGeometry>
        </mxCell>
        <mxCell id="xhn0Lpm8mwDRlb0D4wU6-2" value="&lt;blockquote style=&quot;margin: 0 0 0 40px ; border: none ; padding: 0px&quot;&gt;文件服务集群&lt;/blockquote&gt;" style="rounded=1;whiteSpace=wrap;html=1;dashed=1;strokeColor=#FF8000;fillColor=none;strokeWidth=2;fontStyle=1;verticalAlign=top;arcSize=19;align=left;" vertex="1" parent="WIyWlLk6GJQsqaUBKTNV-1">
          <mxGeometry x="1734.5" y="-745.5" width="273" height="115" as="geometry" />
        </mxCell>
        <mxCell id="xhn0Lpm8mwDRlb0D4wU6-3" value="&lt;blockquote style=&quot;margin: 0 0 0 40px ; border: none ; padding: 0px&quot;&gt;日志收集和分析集群&lt;/blockquote&gt;" style="rounded=1;whiteSpace=wrap;html=1;dashed=1;strokeColor=#FF8000;fillColor=none;strokeWidth=2;fontStyle=1;verticalAlign=top;arcSize=19;align=left;" vertex="1" parent="WIyWlLk6GJQsqaUBKTNV-1">
          <mxGeometry x="1733" y="-1047.5" width="273" height="115" as="geometry" />
        </mxCell>
        <mxCell id="xhn0Lpm8mwDRlb0D4wU6-4" style="edgeStyle=orthogonalEdgeStyle;rounded=0;orthogonalLoop=1;jettySize=auto;html=1;entryX=1.005;entryY=0.283;entryDx=0;entryDy=0;entryPerimeter=0;startArrow=blockThin;startFill=1;endArrow=blockThin;endFill=1;strokeColor=#000000;fontColor=#000000;" edge="1" parent="WIyWlLk6GJQsqaUBKTNV-1" source="xhn0Lpm8mwDRlb0D4wU6-5" target="xhn0Lpm8mwDRlb0D4wU6-80">
          <mxGeometry relative="1" as="geometry">
            <Array as="points">
              <mxPoint x="1686" y="-1272.5" />
              <mxPoint x="1686" y="-1035.5" />
            </Array>
          </mxGeometry>
        </mxCell>
        <mxCell id="xhn0Lpm8mwDRlb0D4wU6-5" value="&lt;blockquote style=&quot;margin: 0 0 0 40px ; border: none ; padding: 0px&quot;&gt;缓存集群&lt;/blockquote&gt;" style="rounded=1;whiteSpace=wrap;html=1;dashed=1;strokeColor=#FF8000;fillColor=none;strokeWidth=2;fontStyle=1;verticalAlign=top;arcSize=19;align=left;" vertex="1" parent="WIyWlLk6GJQsqaUBKTNV-1">
          <mxGeometry x="1736" y="-1330.5" width="420" height="115" as="geometry" />
        </mxCell>
        <mxCell id="xhn0Lpm8mwDRlb0D4wU6-6" style="edgeStyle=orthogonalEdgeStyle;rounded=0;orthogonalLoop=1;jettySize=auto;html=1;exitX=0.25;exitY=0;exitDx=0;exitDy=0;entryX=1;entryY=0.6;entryDx=0;entryDy=0;entryPerimeter=0;endArrow=blockThin;endFill=1;strokeColor=#000000;" edge="1" parent="WIyWlLk6GJQsqaUBKTNV-1" source="xhn0Lpm8mwDRlb0D4wU6-16" target="xhn0Lpm8mwDRlb0D4wU6-41">
          <mxGeometry relative="1" as="geometry" />
        </mxCell>
        <mxCell id="xhn0Lpm8mwDRlb0D4wU6-7" style="rounded=0;orthogonalLoop=1;jettySize=auto;html=1;exitX=1;exitY=0.5;exitDx=0;exitDy=0;entryX=0;entryY=0.25;entryDx=0;entryDy=0;startArrow=none;startFill=0;endArrow=blockThin;endFill=1;strokeColor=#000000;fontColor=#000000;" edge="1" parent="WIyWlLk6GJQsqaUBKTNV-1" source="xhn0Lpm8mwDRlb0D4wU6-16" target="xhn0Lpm8mwDRlb0D4wU6-80">
          <mxGeometry relative="1" as="geometry" />
        </mxCell>
        <mxCell id="xhn0Lpm8mwDRlb0D4wU6-8" value="调用服务" style="text;html=1;resizable=0;points=[];align=center;verticalAlign=middle;labelBackgroundColor=#ffffff;fontColor=#000000;" vertex="1" connectable="0" parent="xhn0Lpm8mwDRlb0D4wU6-7">
          <mxGeometry x="0.0937" relative="1" as="geometry">
            <mxPoint x="6" y="1" as="offset" />
          </mxGeometry>
        </mxCell>
        <mxCell id="xhn0Lpm8mwDRlb0D4wU6-9" style="edgeStyle=none;rounded=0;orthogonalLoop=1;jettySize=auto;html=1;exitX=1;exitY=0.5;exitDx=0;exitDy=0;entryX=0;entryY=0.5;entryDx=0;entryDy=0;startArrow=none;startFill=0;endArrow=blockThin;endFill=1;strokeColor=#000000;fontColor=#000000;" edge="1" parent="WIyWlLk6GJQsqaUBKTNV-1" source="xhn0Lpm8mwDRlb0D4wU6-16" target="xhn0Lpm8mwDRlb0D4wU6-80">
          <mxGeometry relative="1" as="geometry" />
        </mxCell>
        <mxCell id="xhn0Lpm8mwDRlb0D4wU6-10" value="负载均衡" style="text;html=1;resizable=0;points=[];align=center;verticalAlign=middle;labelBackgroundColor=#ffffff;fontColor=#000000;" vertex="1" connectable="0" parent="xhn0Lpm8mwDRlb0D4wU6-9">
          <mxGeometry x="-0.0687" y="1" relative="1" as="geometry">
            <mxPoint x="23" y="13" as="offset" />
          </mxGeometry>
        </mxCell>
        <mxCell id="xhn0Lpm8mwDRlb0D4wU6-11" style="edgeStyle=none;rounded=0;orthogonalLoop=1;jettySize=auto;html=1;exitX=1;exitY=0.5;exitDx=0;exitDy=0;entryX=0;entryY=0.75;entryDx=0;entryDy=0;startArrow=none;startFill=0;endArrow=blockThin;endFill=1;strokeColor=#000000;fontColor=#000000;" edge="1" parent="WIyWlLk6GJQsqaUBKTNV-1" source="xhn0Lpm8mwDRlb0D4wU6-16" target="xhn0Lpm8mwDRlb0D4wU6-80">
          <mxGeometry relative="1" as="geometry" />
        </mxCell>
        <mxCell id="xhn0Lpm8mwDRlb0D4wU6-12" value="重试机制&lt;br&gt;熔断机制" style="text;html=1;resizable=0;points=[];align=center;verticalAlign=middle;labelBackgroundColor=#ffffff;fontColor=#000000;" vertex="1" connectable="0" parent="xhn0Lpm8mwDRlb0D4wU6-11">
          <mxGeometry x="-0.0876" relative="1" as="geometry">
            <mxPoint x="26.5" y="24" as="offset" />
          </mxGeometry>
        </mxCell>
        <mxCell id="xhn0Lpm8mwDRlb0D4wU6-13" style="edgeStyle=orthogonalEdgeStyle;rounded=0;orthogonalLoop=1;jettySize=auto;html=1;entryX=0;entryY=0.75;entryDx=0;entryDy=0;startArrow=none;startFill=0;endArrow=blockThin;endFill=1;strokeColor=#000000;fontColor=#000000;" edge="1" parent="WIyWlLk6GJQsqaUBKTNV-1" source="xhn0Lpm8mwDRlb0D4wU6-16" target="xhn0Lpm8mwDRlb0D4wU6-52">
          <mxGeometry relative="1" as="geometry">
            <Array as="points">
              <mxPoint x="816" y="-1386.5" />
            </Array>
          </mxGeometry>
        </mxCell>
        <mxCell id="xhn0Lpm8mwDRlb0D4wU6-14" value="注册" style="text;html=1;resizable=0;points=[];align=center;verticalAlign=middle;labelBackgroundColor=#ffffff;fontColor=#000000;" vertex="1" connectable="0" parent="xhn0Lpm8mwDRlb0D4wU6-13">
          <mxGeometry x="-0.2013" y="3" relative="1" as="geometry">
            <mxPoint as="offset" />
          </mxGeometry>
        </mxCell>
        <mxCell id="xhn0Lpm8mwDRlb0D4wU6-15" style="edgeStyle=orthogonalEdgeStyle;rounded=0;orthogonalLoop=1;jettySize=auto;html=1;exitX=0.5;exitY=1;exitDx=0;exitDy=0;entryX=0.74;entryY=0.5;entryDx=0;entryDy=0;entryPerimeter=0;startArrow=none;startFill=0;endArrow=blockThin;endFill=1;strokeColor=#000000;fontColor=#000000;" edge="1" parent="WIyWlLk6GJQsqaUBKTNV-1" source="xhn0Lpm8mwDRlb0D4wU6-16" target="xhn0Lpm8mwDRlb0D4wU6-42">
          <mxGeometry relative="1" as="geometry">
            <Array as="points">
              <mxPoint x="772" y="-847.5" />
              <mxPoint x="736" y="-847.5" />
            </Array>
          </mxGeometry>
        </mxCell>
        <mxCell id="xhn0Lpm8mwDRlb0D4wU6-16" value="服务网关&lt;br&gt;&lt;br&gt;" style="rounded=1;whiteSpace=wrap;html=1;dashed=1;strokeColor=#FF8000;fillColor=none;strokeWidth=2;fontStyle=1;verticalAlign=bottom;" vertex="1" parent="WIyWlLk6GJQsqaUBKTNV-1">
          <mxGeometry x="649" y="-1240.5" width="245" height="310" as="geometry" />
        </mxCell>
        <mxCell id="xhn0Lpm8mwDRlb0D4wU6-17" style="rounded=0;orthogonalLoop=1;jettySize=auto;html=1;exitX=1;exitY=0.5;exitDx=0;exitDy=0;entryX=0;entryY=0.505;entryDx=0;entryDy=0;entryPerimeter=0;strokeColor=#6B6B6B;endArrow=blockThin;endFill=1;" edge="1" parent="WIyWlLk6GJQsqaUBKTNV-1" source="xhn0Lpm8mwDRlb0D4wU6-19" target="xhn0Lpm8mwDRlb0D4wU6-32">
          <mxGeometry relative="1" as="geometry" />
        </mxCell>
        <mxCell id="xhn0Lpm8mwDRlb0D4wU6-18" value="请求" style="text;html=1;resizable=0;points=[];align=center;verticalAlign=middle;labelBackgroundColor=#ffffff;fontSize=12;fontColor=#000000;" vertex="1" connectable="0" parent="xhn0Lpm8mwDRlb0D4wU6-17">
          <mxGeometry x="-0.2673" y="-1" relative="1" as="geometry">
            <mxPoint as="offset" />
          </mxGeometry>
        </mxCell>
        <mxCell id="xhn0Lpm8mwDRlb0D4wU6-19" value="" style="rounded=1;whiteSpace=wrap;html=1;fillColor=none;dashed=1;strokeWidth=2;strokeColor=#787878;" vertex="1" parent="WIyWlLk6GJQsqaUBKTNV-1">
          <mxGeometry x="106" y="-1280.5" width="90" height="390" as="geometry" />
        </mxCell>
        <mxCell id="xhn0Lpm8mwDRlb0D4wU6-20" value="" style="endArrow=none;html=1;strokeColor=#6B6B6B;opacity=80;" edge="1" parent="WIyWlLk6GJQsqaUBKTNV-1">
          <mxGeometry width="50" height="50" relative="1" as="geometry">
            <mxPoint x="235" y="-340.5" as="sourcePoint" />
            <mxPoint x="235" y="-1530.5" as="targetPoint" />
          </mxGeometry>
        </mxCell>
        <mxCell id="xhn0Lpm8mwDRlb0D4wU6-21" value="移动设备" style="image;html=1;labelBackgroundColor=#ffffff;image=img/lib/clip_art/telecommunication/iPhone_128x128.png;shadow=0;dashed=0;fontFamily=Helvetica;fontSize=12;fontColor=#000000;align=center;fillColor=#505050;" vertex="1" parent="WIyWlLk6GJQsqaUBKTNV-1">
          <mxGeometry x="134.5" y="-1207" width="35" height="65" as="geometry" />
        </mxCell>
        <mxCell id="xhn0Lpm8mwDRlb0D4wU6-22" value="PC设备" style="image;html=1;labelBackgroundColor=#ffffff;image=img/lib/clip_art/computers/Monitor_Tower_128x128.png;dashed=1;fontFamily=Helvetica;fontSize=12;fontColor=#000000;align=center;strokeColor=#000000;fillColor=#ffffff;" vertex="1" parent="WIyWlLk6GJQsqaUBKTNV-1">
          <mxGeometry x="116" y="-1104.5" width="75" height="60.94" as="geometry" />
        </mxCell>
        <mxCell id="xhn0Lpm8mwDRlb0D4wU6-23" value="其他设备" style="image;html=1;labelBackgroundColor=#ffffff;image=img/lib/clip_art/computers/Harddrive_128x128.png;dashed=1;fontFamily=Helvetica;fontSize=12;fontColor=#000000;align=center;strokeColor=#000000;" vertex="1" parent="WIyWlLk6GJQsqaUBKTNV-1">
          <mxGeometry x="121" y="-1003" width="60" height="60" as="geometry" />
        </mxCell>
        <mxCell id="xhn0Lpm8mwDRlb0D4wU6-24" style="edgeStyle=none;rounded=0;orthogonalLoop=1;jettySize=auto;html=1;exitX=1;exitY=0.5;exitDx=0;exitDy=0;entryX=0;entryY=0.5;entryDx=0;entryDy=0;endArrow=blockThin;endFill=1;strokeColor=#000000;" edge="1" parent="WIyWlLk6GJQsqaUBKTNV-1" source="xhn0Lpm8mwDRlb0D4wU6-27" target="xhn0Lpm8mwDRlb0D4wU6-35">
          <mxGeometry relative="1" as="geometry" />
        </mxCell>
        <mxCell id="xhn0Lpm8mwDRlb0D4wU6-25" style="edgeStyle=none;rounded=0;orthogonalLoop=1;jettySize=auto;html=1;exitX=1;exitY=0.5;exitDx=0;exitDy=0;entryX=0;entryY=0.5;entryDx=0;entryDy=0;endArrow=blockThin;endFill=1;strokeColor=#000000;" edge="1" parent="WIyWlLk6GJQsqaUBKTNV-1" source="xhn0Lpm8mwDRlb0D4wU6-27" target="xhn0Lpm8mwDRlb0D4wU6-36">
          <mxGeometry relative="1" as="geometry" />
        </mxCell>
        <mxCell id="xhn0Lpm8mwDRlb0D4wU6-26" style="edgeStyle=none;rounded=0;orthogonalLoop=1;jettySize=auto;html=1;exitX=1;exitY=0.5;exitDx=0;exitDy=0;entryX=0;entryY=0.5;entryDx=0;entryDy=0;endArrow=blockThin;endFill=1;strokeColor=#000000;" edge="1" parent="WIyWlLk6GJQsqaUBKTNV-1" source="xhn0Lpm8mwDRlb0D4wU6-27" target="xhn0Lpm8mwDRlb0D4wU6-37">
          <mxGeometry relative="1" as="geometry" />
        </mxCell>
        <mxCell id="xhn0Lpm8mwDRlb0D4wU6-27" value="" style="rounded=1;whiteSpace=wrap;html=1;fillColor=none;dashed=1;strokeWidth=2;strokeColor=#787878;" vertex="1" parent="WIyWlLk6GJQsqaUBKTNV-1">
          <mxGeometry x="390" y="-1295" width="90" height="420" as="geometry" />
        </mxCell>
        <mxCell id="xhn0Lpm8mwDRlb0D4wU6-28" value="nginx" style="verticalLabelPosition=bottom;html=1;verticalAlign=top;align=center;strokeColor=none;fillColor=#00BEF2;shape=mxgraph.azure.azure_load_balancer;dashed=1;aspect=fixed;" vertex="1" parent="WIyWlLk6GJQsqaUBKTNV-1">
          <mxGeometry x="415" y="-1220.5" width="50" height="35" as="geometry" />
        </mxCell>
        <mxCell id="xhn0Lpm8mwDRlb0D4wU6-29" style="edgeStyle=orthogonalEdgeStyle;rounded=0;orthogonalLoop=1;jettySize=auto;html=1;entryX=0.05;entryY=0.5;entryDx=0;entryDy=0;entryPerimeter=0;strokeColor=#6B6B6B;endArrow=blockThin;endFill=1;" edge="1" parent="WIyWlLk6GJQsqaUBKTNV-1" source="xhn0Lpm8mwDRlb0D4wU6-32" target="xhn0Lpm8mwDRlb0D4wU6-28">
          <mxGeometry relative="1" as="geometry">
            <Array as="points">
              <mxPoint x="365" y="-1085.5" />
              <mxPoint x="365" y="-1202.5" />
            </Array>
          </mxGeometry>
        </mxCell>
        <mxCell id="xhn0Lpm8mwDRlb0D4wU6-30" style="edgeStyle=orthogonalEdgeStyle;rounded=0;orthogonalLoop=1;jettySize=auto;html=1;entryX=0.05;entryY=0.5;entryDx=0;entryDy=0;entryPerimeter=0;endArrow=blockThin;endFill=1;strokeColor=#6B6B6B;" edge="1" parent="WIyWlLk6GJQsqaUBKTNV-1" source="xhn0Lpm8mwDRlb0D4wU6-32" target="xhn0Lpm8mwDRlb0D4wU6-34">
          <mxGeometry relative="1" as="geometry">
            <Array as="points">
              <mxPoint x="365" y="-1085.5" />
              <mxPoint x="365" y="-967.5" />
            </Array>
          </mxGeometry>
        </mxCell>
        <mxCell id="xhn0Lpm8mwDRlb0D4wU6-31" style="edgeStyle=orthogonalEdgeStyle;rounded=0;orthogonalLoop=1;jettySize=auto;html=1;entryX=0.05;entryY=0.5;entryDx=0;entryDy=0;entryPerimeter=0;endArrow=blockThin;endFill=1;strokeColor=#6B6B6B;" edge="1" parent="WIyWlLk6GJQsqaUBKTNV-1" source="xhn0Lpm8mwDRlb0D4wU6-32" target="xhn0Lpm8mwDRlb0D4wU6-33">
          <mxGeometry relative="1" as="geometry" />
        </mxCell>
        <mxCell id="xhn0Lpm8mwDRlb0D4wU6-32" value="HAProxy" style="shadow=0;dashed=1;html=1;strokeColor=none;labelPosition=center;verticalLabelPosition=bottom;verticalAlign=top;align=center;shape=mxgraph.mscae.cloud.active_directory;fillColor=#00BEF2;pointerEvents=1;fontFamily=Helvetica;fontSize=12;fontColor=#000000;gradientColor=none;" vertex="1" parent="WIyWlLk6GJQsqaUBKTNV-1">
          <mxGeometry x="275" y="-1118.5" width="75" height="66" as="geometry" />
        </mxCell>
        <mxCell id="xhn0Lpm8mwDRlb0D4wU6-33" value="nginx" style="verticalLabelPosition=bottom;html=1;verticalAlign=top;align=center;strokeColor=none;fillColor=#00BEF2;shape=mxgraph.azure.azure_load_balancer;dashed=1;" vertex="1" parent="WIyWlLk6GJQsqaUBKTNV-1">
          <mxGeometry x="415" y="-1103" width="50" height="35" as="geometry" />
        </mxCell>
        <mxCell id="xhn0Lpm8mwDRlb0D4wU6-34" value="nginx" style="verticalLabelPosition=bottom;html=1;verticalAlign=top;align=center;strokeColor=none;fillColor=#00BEF2;shape=mxgraph.azure.azure_load_balancer;dashed=1;" vertex="1" parent="WIyWlLk6GJQsqaUBKTNV-1">
          <mxGeometry x="415" y="-985.5" width="50" height="35" as="geometry" />
        </mxCell>
        <mxCell id="xhn0Lpm8mwDRlb0D4wU6-35" value="ZUUL" style="rounded=1;whiteSpace=wrap;html=1;fillColor=#FF8000;strokeColor=#CC6600;" vertex="1" parent="WIyWlLk6GJQsqaUBKTNV-1">
          <mxGeometry x="666" y="-1175.5" width="90" height="40" as="geometry" />
        </mxCell>
        <mxCell id="xhn0Lpm8mwDRlb0D4wU6-36" value="ZUUL" style="rounded=1;whiteSpace=wrap;html=1;fillColor=#FF8000;strokeColor=#CC6600;" vertex="1" parent="WIyWlLk6GJQsqaUBKTNV-1">
          <mxGeometry x="666" y="-1105" width="90" height="40" as="geometry" />
        </mxCell>
        <mxCell id="xhn0Lpm8mwDRlb0D4wU6-37" value="ZUUL" style="rounded=1;whiteSpace=wrap;html=1;fillColor=#FF8000;strokeColor=#CC6600;" vertex="1" parent="WIyWlLk6GJQsqaUBKTNV-1">
          <mxGeometry x="666" y="-1035.5" width="90" height="40" as="geometry" />
        </mxCell>
        <mxCell id="xhn0Lpm8mwDRlb0D4wU6-38" value="JWT" style="rounded=1;whiteSpace=wrap;html=1;fillColor=none;strokeColor=#808080;dashed=1;" vertex="1" parent="WIyWlLk6GJQsqaUBKTNV-1">
          <mxGeometry x="793.5" y="-1180.5" width="80" height="35" as="geometry" />
        </mxCell>
        <mxCell id="xhn0Lpm8mwDRlb0D4wU6-39" value="JWT" style="rounded=1;whiteSpace=wrap;html=1;fillColor=none;strokeColor=#808080;dashed=1;" vertex="1" parent="WIyWlLk6GJQsqaUBKTNV-1">
          <mxGeometry x="793.5" y="-1105" width="80" height="35" as="geometry" />
        </mxCell>
        <mxCell id="xhn0Lpm8mwDRlb0D4wU6-40" value="JWT" style="rounded=1;whiteSpace=wrap;html=1;fillColor=none;strokeColor=#808080;dashed=1;" vertex="1" parent="WIyWlLk6GJQsqaUBKTNV-1">
          <mxGeometry x="793.5" y="-1038" width="80" height="35" as="geometry" />
        </mxCell>
        <mxCell id="xhn0Lpm8mwDRlb0D4wU6-41" value="swagger&amp;nbsp;API文档" style="shadow=0;dashed=0;html=1;strokeColor=none;labelPosition=center;verticalLabelPosition=bottom;verticalAlign=top;align=center;shape=mxgraph.mscae.cloud.api_management;fillColor=#00BEF2;pointerEvents=1;aspect=fixed;" vertex="1" parent="WIyWlLk6GJQsqaUBKTNV-1">
          <mxGeometry x="604.5" y="-1358" width="75" height="67.5" as="geometry" />
        </mxCell>
        <mxCell id="xhn0Lpm8mwDRlb0D4wU6-42" value="限流" style="shadow=0;dashed=0;html=1;strokeColor=none;fillColor=#00BEF2;labelPosition=center;verticalLabelPosition=bottom;verticalAlign=top;align=center;shape=mxgraph.azure.express_route;pointerEvents=1;aspect=fixed;" vertex="1" parent="WIyWlLk6GJQsqaUBKTNV-1">
          <mxGeometry x="611.5" y="-870.5" width="75" height="45" as="geometry" />
        </mxCell>
        <mxCell id="xhn0Lpm8mwDRlb0D4wU6-43" value="" style="verticalLabelPosition=bottom;html=1;verticalAlign=top;align=center;strokeColor=none;fillColor=#00BEF2;shape=mxgraph.azure.github_code;pointerEvents=1;dashed=1;fontColor=#000000;aspect=fixed;" vertex="1" parent="WIyWlLk6GJQsqaUBKTNV-1">
          <mxGeometry x="1563.5" y="-236" width="75" height="75" as="geometry" />
        </mxCell>
        <mxCell id="xhn0Lpm8mwDRlb0D4wU6-44" value="OSS" style="verticalLabelPosition=bottom;html=1;verticalAlign=top;align=center;strokeColor=none;fillColor=#00BEF2;shape=mxgraph.azure.cloud_services_configuration_file;pointerEvents=1;dashed=1;fontColor=#000000;" vertex="1" parent="WIyWlLk6GJQsqaUBKTNV-1">
          <mxGeometry x="1767" y="-715.5" width="55" height="55" as="geometry" />
        </mxCell>
        <mxCell id="xhn0Lpm8mwDRlb0D4wU6-45" value="" style="group" vertex="1" connectable="0" parent="WIyWlLk6GJQsqaUBKTNV-1">
          <mxGeometry x="977.5" y="-1626.5" width="126" height="103" as="geometry" />
        </mxCell>
        <mxCell id="xhn0Lpm8mwDRlb0D4wU6-46" value="" style="rounded=1;whiteSpace=wrap;html=1;dashed=1;strokeColor=#FF8000;fillColor=none;strokeWidth=1;fontStyle=1;verticalAlign=bottom;" vertex="1" parent="xhn0Lpm8mwDRlb0D4wU6-45">
          <mxGeometry width="126" height="103" as="geometry" />
        </mxCell>
        <mxCell id="xhn0Lpm8mwDRlb0D4wU6-47" value="cloud&amp;nbsp;native" style="shadow=0;dashed=0;html=1;strokeColor=none;fillColor=#00BEF2;labelPosition=center;verticalLabelPosition=bottom;verticalAlign=top;align=center;shape=mxgraph.azure.hyper_v_recovery_manager;fontColor=#000000;aspect=fixed;" vertex="1" parent="xhn0Lpm8mwDRlb0D4wU6-45">
          <mxGeometry x="25.5" y="8.5" width="75" height="67.5" as="geometry" />
        </mxCell>
        <mxCell id="xhn0Lpm8mwDRlb0D4wU6-48" value="" style="group" vertex="1" connectable="0" parent="WIyWlLk6GJQsqaUBKTNV-1">
          <mxGeometry x="1115.5" y="-1651.5" width="150" height="128" as="geometry" />
        </mxCell>
        <mxCell id="xhn0Lpm8mwDRlb0D4wU6-49" value="istio" style="rounded=1;whiteSpace=wrap;html=1;dashed=1;strokeColor=#FF8000;fillColor=none;strokeWidth=1;fontStyle=1;verticalAlign=top;" vertex="1" parent="xhn0Lpm8mwDRlb0D4wU6-48">
          <mxGeometry width="150" height="128" as="geometry" />
        </mxCell>
        <mxCell id="xhn0Lpm8mwDRlb0D4wU6-50" value="Service&amp;nbsp;Mesh" style="shadow=0;dashed=0;html=1;strokeColor=none;fillColor=#00BEF2;labelPosition=center;verticalLabelPosition=bottom;verticalAlign=top;align=center;shape=mxgraph.azure.traffic_manager;pointerEvents=1;fontColor=#000000;aspect=fixed;" vertex="1" parent="xhn0Lpm8mwDRlb0D4wU6-48">
          <mxGeometry x="35" y="26" width="75" height="75" as="geometry" />
        </mxCell>
        <mxCell id="xhn0Lpm8mwDRlb0D4wU6-51" value="" style="group" vertex="1" connectable="0" parent="WIyWlLk6GJQsqaUBKTNV-1">
          <mxGeometry x="1013" y="-1475.5" width="286" height="128" as="geometry" />
        </mxCell>
        <mxCell id="xhn0Lpm8mwDRlb0D4wU6-52" value="高可用注册中心集群" style="rounded=1;whiteSpace=wrap;html=1;dashed=1;strokeColor=#FF8000;fillColor=none;strokeWidth=2;fontStyle=1;verticalAlign=bottom;" vertex="1" parent="xhn0Lpm8mwDRlb0D4wU6-51">
          <mxGeometry width="286" height="128" as="geometry" />
        </mxCell>
        <mxCell id="xhn0Lpm8mwDRlb0D4wU6-53" value="EUREKA-A" style="rounded=1;whiteSpace=wrap;html=1;strokeColor=#D4E1F5;strokeWidth=2;fillColor=#99CCFF;gradientColor=none;fontColor=#000000;" vertex="1" parent="xhn0Lpm8mwDRlb0D4wU6-51">
          <mxGeometry x="103.5" y="20" width="80" height="20" as="geometry" />
        </mxCell>
        <mxCell id="xhn0Lpm8mwDRlb0D4wU6-54" style="rounded=0;orthogonalLoop=1;jettySize=auto;html=1;exitX=0.5;exitY=0;exitDx=0;exitDy=0;entryX=0;entryY=0.5;entryDx=0;entryDy=0;endArrow=blockThin;endFill=1;strokeColor=#000000;fontColor=#000000;startArrow=blockThin;startFill=1;" edge="1" parent="xhn0Lpm8mwDRlb0D4wU6-51" source="xhn0Lpm8mwDRlb0D4wU6-56" target="xhn0Lpm8mwDRlb0D4wU6-53">
          <mxGeometry relative="1" as="geometry" />
        </mxCell>
        <mxCell id="xhn0Lpm8mwDRlb0D4wU6-55" value="注册" style="text;html=1;resizable=0;points=[];align=center;verticalAlign=middle;labelBackgroundColor=#ffffff;fontColor=#000000;" vertex="1" connectable="0" parent="xhn0Lpm8mwDRlb0D4wU6-54">
          <mxGeometry x="0.1494" relative="1" as="geometry">
            <mxPoint x="-2" y="2" as="offset" />
          </mxGeometry>
        </mxCell>
        <mxCell id="xhn0Lpm8mwDRlb0D4wU6-56" value="EUREKA-B" style="rounded=1;whiteSpace=wrap;html=1;strokeColor=#D4E1F5;strokeWidth=2;fillColor=#99CCFF;gradientColor=none;fontColor=#000000;" vertex="1" parent="xhn0Lpm8mwDRlb0D4wU6-51">
          <mxGeometry x="8.5" y="80" width="80" height="20" as="geometry" />
        </mxCell>
        <mxCell id="xhn0Lpm8mwDRlb0D4wU6-57" value="EUREKA-C" style="rounded=1;whiteSpace=wrap;html=1;strokeColor=#D4E1F5;strokeWidth=2;fillColor=#99CCFF;gradientColor=none;fontColor=#000000;" vertex="1" parent="xhn0Lpm8mwDRlb0D4wU6-51">
          <mxGeometry x="197.5" y="80" width="80" height="20" as="geometry" />
        </mxCell>
        <mxCell id="xhn0Lpm8mwDRlb0D4wU6-58" style="edgeStyle=none;rounded=0;orthogonalLoop=1;jettySize=auto;html=1;exitX=1;exitY=0.5;exitDx=0;exitDy=0;entryX=0.5;entryY=0;entryDx=0;entryDy=0;startArrow=blockThin;startFill=1;endArrow=blockThin;endFill=1;strokeColor=#000000;fontColor=#000000;" edge="1" parent="xhn0Lpm8mwDRlb0D4wU6-51" source="xhn0Lpm8mwDRlb0D4wU6-53" target="xhn0Lpm8mwDRlb0D4wU6-57">
          <mxGeometry relative="1" as="geometry" />
        </mxCell>
        <mxCell id="xhn0Lpm8mwDRlb0D4wU6-59" value="注册" style="text;html=1;resizable=0;points=[];align=center;verticalAlign=middle;labelBackgroundColor=#ffffff;fontColor=#000000;" vertex="1" connectable="0" parent="xhn0Lpm8mwDRlb0D4wU6-58">
          <mxGeometry x="-0.1387" relative="1" as="geometry">
            <mxPoint x="3" y="2" as="offset" />
          </mxGeometry>
        </mxCell>
        <mxCell id="xhn0Lpm8mwDRlb0D4wU6-60" style="edgeStyle=none;rounded=0;orthogonalLoop=1;jettySize=auto;html=1;exitX=1;exitY=0.5;exitDx=0;exitDy=0;entryX=0;entryY=0.5;entryDx=0;entryDy=0;startArrow=blockThin;startFill=1;endArrow=blockThin;endFill=1;strokeColor=#000000;fontColor=#000000;" edge="1" parent="xhn0Lpm8mwDRlb0D4wU6-51" source="xhn0Lpm8mwDRlb0D4wU6-56" target="xhn0Lpm8mwDRlb0D4wU6-57">
          <mxGeometry relative="1" as="geometry" />
        </mxCell>
        <mxCell id="xhn0Lpm8mwDRlb0D4wU6-61" value="注册" style="text;html=1;resizable=0;points=[];align=center;verticalAlign=middle;labelBackgroundColor=#ffffff;fontColor=#000000;" vertex="1" connectable="0" parent="xhn0Lpm8mwDRlb0D4wU6-60">
          <mxGeometry x="-0.152" relative="1" as="geometry">
            <mxPoint x="9" as="offset" />
          </mxGeometry>
        </mxCell>
        <mxCell id="xhn0Lpm8mwDRlb0D4wU6-62" style="edgeStyle=orthogonalEdgeStyle;rounded=0;orthogonalLoop=1;jettySize=auto;html=1;exitX=0.25;exitY=0;exitDx=0;exitDy=0;entryX=0.5;entryY=1;entryDx=0;entryDy=0;startArrow=none;startFill=0;endArrow=blockThin;endFill=1;strokeColor=#000000;fontColor=#000000;" edge="1" parent="WIyWlLk6GJQsqaUBKTNV-1" source="xhn0Lpm8mwDRlb0D4wU6-52" target="xhn0Lpm8mwDRlb0D4wU6-46">
          <mxGeometry relative="1" as="geometry" />
        </mxCell>
        <mxCell id="xhn0Lpm8mwDRlb0D4wU6-63" value="进化" style="text;html=1;resizable=0;points=[];align=center;verticalAlign=middle;labelBackgroundColor=#ffffff;fontColor=#000000;" vertex="1" connectable="0" parent="xhn0Lpm8mwDRlb0D4wU6-62">
          <mxGeometry x="0.1512" y="1" relative="1" as="geometry">
            <mxPoint x="5" y="-1" as="offset" />
          </mxGeometry>
        </mxCell>
        <mxCell id="xhn0Lpm8mwDRlb0D4wU6-64" style="edgeStyle=orthogonalEdgeStyle;rounded=0;orthogonalLoop=1;jettySize=auto;html=1;exitX=0.5;exitY=0;exitDx=0;exitDy=0;entryX=0.5;entryY=1;entryDx=0;entryDy=0;startArrow=none;startFill=0;endArrow=blockThin;endFill=1;strokeColor=#000000;fontColor=#000000;" edge="1" parent="WIyWlLk6GJQsqaUBKTNV-1" source="xhn0Lpm8mwDRlb0D4wU6-52" target="xhn0Lpm8mwDRlb0D4wU6-49">
          <mxGeometry relative="1" as="geometry" />
        </mxCell>
        <mxCell id="xhn0Lpm8mwDRlb0D4wU6-65" value="进化" style="text;html=1;resizable=0;points=[];align=center;verticalAlign=middle;labelBackgroundColor=#ffffff;fontColor=#000000;" vertex="1" connectable="0" parent="xhn0Lpm8mwDRlb0D4wU6-64">
          <mxGeometry x="-0.3826" y="-10" relative="1" as="geometry">
            <mxPoint x="15.5" y="-10" as="offset" />
          </mxGeometry>
        </mxCell>
        <mxCell id="xhn0Lpm8mwDRlb0D4wU6-66" value="" style="group" vertex="1" connectable="0" parent="WIyWlLk6GJQsqaUBKTNV-1">
          <mxGeometry x="1022" y="-1291.5" width="125" height="151" as="geometry" />
        </mxCell>
        <mxCell id="xhn0Lpm8mwDRlb0D4wU6-67" value="" style="rounded=1;whiteSpace=wrap;html=1;dashed=1;strokeColor=#FF8000;fillColor=none;strokeWidth=1;fontStyle=1;verticalAlign=bottom;arcSize=6;" vertex="1" parent="xhn0Lpm8mwDRlb0D4wU6-66">
          <mxGeometry width="125" height="151" as="geometry" />
        </mxCell>
        <mxCell id="xhn0Lpm8mwDRlb0D4wU6-68" value="AuthService" style="rounded=1;whiteSpace=wrap;html=1;fillColor=#80FF00;strokeColor=#FFD1A3;" vertex="1" parent="xhn0Lpm8mwDRlb0D4wU6-66">
          <mxGeometry x="13" y="17" width="100" height="35" as="geometry" />
        </mxCell>
        <mxCell id="xhn0Lpm8mwDRlb0D4wU6-69" value="AuthService" style="rounded=1;whiteSpace=wrap;html=1;fillColor=#80FF00;strokeColor=#FFD1A3;" vertex="1" parent="xhn0Lpm8mwDRlb0D4wU6-66">
          <mxGeometry x="12.5" y="58" width="100" height="35" as="geometry" />
        </mxCell>
        <mxCell id="xhn0Lpm8mwDRlb0D4wU6-70" value="AuthService" style="rounded=1;whiteSpace=wrap;html=1;fillColor=#80FF00;strokeColor=#FFD1A3;" vertex="1" parent="xhn0Lpm8mwDRlb0D4wU6-66">
          <mxGeometry x="12.5" y="99.5" width="100" height="35" as="geometry" />
        </mxCell>
        <mxCell id="xhn0Lpm8mwDRlb0D4wU6-71" style="edgeStyle=orthogonalEdgeStyle;rounded=0;orthogonalLoop=1;jettySize=auto;html=1;exitX=0;exitY=0.5;exitDx=0;exitDy=0;entryX=0.841;entryY=0;entryDx=0;entryDy=0;entryPerimeter=0;startArrow=none;startFill=0;endArrow=blockThin;endFill=1;strokeColor=#000000;fontColor=#000000;" edge="1" parent="WIyWlLk6GJQsqaUBKTNV-1" source="xhn0Lpm8mwDRlb0D4wU6-67" target="xhn0Lpm8mwDRlb0D4wU6-16">
          <mxGeometry relative="1" as="geometry">
            <Array as="points">
              <mxPoint x="966" y="-1216.5" />
              <mxPoint x="966" y="-1260.5" />
              <mxPoint x="855" y="-1260.5" />
            </Array>
          </mxGeometry>
        </mxCell>
        <mxCell id="xhn0Lpm8mwDRlb0D4wU6-72" value="用户认证JWT派发" style="text;html=1;resizable=0;points=[];align=center;verticalAlign=middle;labelBackgroundColor=#ffffff;fontColor=#000000;" vertex="1" connectable="0" parent="xhn0Lpm8mwDRlb0D4wU6-71">
          <mxGeometry x="0.5025" y="3" relative="1" as="geometry">
            <mxPoint x="29" y="-3" as="offset" />
          </mxGeometry>
        </mxCell>
        <mxCell id="xhn0Lpm8mwDRlb0D4wU6-73" style="rounded=0;orthogonalLoop=1;jettySize=auto;html=1;exitX=0.5;exitY=0;exitDx=0;exitDy=0;entryX=0.25;entryY=1;entryDx=0;entryDy=0;startArrow=none;startFill=0;endArrow=blockThin;endFill=1;strokeColor=#000000;fontColor=#000000;" edge="1" parent="WIyWlLk6GJQsqaUBKTNV-1" source="xhn0Lpm8mwDRlb0D4wU6-67" target="xhn0Lpm8mwDRlb0D4wU6-52">
          <mxGeometry relative="1" as="geometry" />
        </mxCell>
        <mxCell id="xhn0Lpm8mwDRlb0D4wU6-74" value="注册" style="text;html=1;resizable=0;points=[];align=center;verticalAlign=middle;labelBackgroundColor=#ffffff;fontColor=#000000;" vertex="1" connectable="0" parent="xhn0Lpm8mwDRlb0D4wU6-73">
          <mxGeometry x="0.203" relative="1" as="geometry">
            <mxPoint y="5" as="offset" />
          </mxGeometry>
        </mxCell>
        <mxCell id="xhn0Lpm8mwDRlb0D4wU6-75" style="rounded=0;orthogonalLoop=1;jettySize=auto;html=1;startArrow=none;startFill=0;endArrow=blockThin;endFill=1;strokeColor=#000000;fontColor=#000000;exitX=0.454;exitY=-0.005;exitDx=0;exitDy=0;exitPerimeter=0;entryX=0.831;entryY=1.009;entryDx=0;entryDy=0;entryPerimeter=0;" edge="1" parent="WIyWlLk6GJQsqaUBKTNV-1" source="xhn0Lpm8mwDRlb0D4wU6-80" target="xhn0Lpm8mwDRlb0D4wU6-52">
          <mxGeometry relative="1" as="geometry">
            <mxPoint x="1265" y="-1320.5" as="targetPoint" />
            <mxPoint x="1251" y="-1140.5" as="sourcePoint" />
          </mxGeometry>
        </mxCell>
        <mxCell id="xhn0Lpm8mwDRlb0D4wU6-76" value="注册" style="text;html=1;resizable=0;points=[];align=center;verticalAlign=middle;labelBackgroundColor=#ffffff;fontColor=#000000;" vertex="1" connectable="0" parent="xhn0Lpm8mwDRlb0D4wU6-75">
          <mxGeometry x="0.3157" y="-1" relative="1" as="geometry">
            <mxPoint as="offset" />
          </mxGeometry>
        </mxCell>
        <mxCell id="xhn0Lpm8mwDRlb0D4wU6-77" style="rounded=0;orthogonalLoop=1;jettySize=auto;html=1;entryX=0.25;entryY=0;entryDx=0;entryDy=0;startArrow=none;startFill=0;endArrow=blockThin;endFill=1;strokeColor=#000000;fontColor=#000000;exitX=0.618;exitY=1.012;exitDx=0;exitDy=0;exitPerimeter=0;" edge="1" parent="WIyWlLk6GJQsqaUBKTNV-1" source="xhn0Lpm8mwDRlb0D4wU6-52" target="xhn0Lpm8mwDRlb0D4wU6-80">
          <mxGeometry relative="1" as="geometry">
            <mxPoint x="1211" y="-1300.5" as="sourcePoint" />
          </mxGeometry>
        </mxCell>
        <mxCell id="xhn0Lpm8mwDRlb0D4wU6-78" value="服务发现" style="text;html=1;resizable=0;points=[];align=center;verticalAlign=middle;labelBackgroundColor=#ffffff;fontColor=#000000;" vertex="1" connectable="0" parent="xhn0Lpm8mwDRlb0D4wU6-77">
          <mxGeometry x="-0.322" y="1" relative="1" as="geometry">
            <mxPoint as="offset" />
          </mxGeometry>
        </mxCell>
        <mxCell id="xhn0Lpm8mwDRlb0D4wU6-79" value="" style="group" vertex="1" connectable="0" parent="WIyWlLk6GJQsqaUBKTNV-1">
          <mxGeometry x="1114.5" y="-1114.5" width="300" height="279" as="geometry" />
        </mxCell>
        <mxCell id="xhn0Lpm8mwDRlb0D4wU6-80" value="服务集群" style="rounded=1;whiteSpace=wrap;html=1;dashed=1;strokeColor=#FF8000;fillColor=none;strokeWidth=2;fontStyle=1;verticalAlign=top;" vertex="1" parent="xhn0Lpm8mwDRlb0D4wU6-79">
          <mxGeometry width="300" height="279" as="geometry" />
        </mxCell>
        <mxCell id="xhn0Lpm8mwDRlb0D4wU6-81" value="" style="rounded=1;whiteSpace=wrap;html=1;dashed=1;strokeColor=#FF8000;fillColor=none;strokeWidth=1;fontStyle=1;verticalAlign=top;" vertex="1" parent="xhn0Lpm8mwDRlb0D4wU6-79">
          <mxGeometry x="116.5" y="109" width="65" height="55" as="geometry" />
        </mxCell>
        <mxCell id="xhn0Lpm8mwDRlb0D4wU6-82" value="Service&amp;nbsp;A" style="verticalLabelPosition=bottom;html=1;verticalAlign=top;align=center;strokeColor=none;fillColor=#00BEF2;shape=mxgraph.azure.cloud_service;dashed=1;aspect=fixed;" vertex="1" parent="xhn0Lpm8mwDRlb0D4wU6-79">
          <mxGeometry x="14" y="39.5" width="75" height="60" as="geometry" />
        </mxCell>
        <mxCell id="xhn0Lpm8mwDRlb0D4wU6-83" value="Service&amp;nbsp;B" style="verticalLabelPosition=bottom;html=1;verticalAlign=top;align=center;strokeColor=none;fillColor=#00BEF2;shape=mxgraph.azure.cloud_service;dashed=1;aspect=fixed;" vertex="1" parent="xhn0Lpm8mwDRlb0D4wU6-79">
          <mxGeometry x="210.5" y="39.5" width="75" height="60" as="geometry" />
        </mxCell>
        <mxCell id="xhn0Lpm8mwDRlb0D4wU6-84" style="edgeStyle=orthogonalEdgeStyle;rounded=0;orthogonalLoop=1;jettySize=auto;html=1;exitX=0.97;exitY=0.5;exitDx=0;exitDy=0;exitPerimeter=0;entryX=0.03;entryY=0.5;entryDx=0;entryDy=0;entryPerimeter=0;startArrow=blockThin;startFill=1;endArrow=blockThin;endFill=1;strokeColor=#000000;fontColor=#000000;" edge="1" parent="xhn0Lpm8mwDRlb0D4wU6-79" source="xhn0Lpm8mwDRlb0D4wU6-82" target="xhn0Lpm8mwDRlb0D4wU6-83">
          <mxGeometry relative="1" as="geometry" />
        </mxCell>
        <mxCell id="xhn0Lpm8mwDRlb0D4wU6-85" value="feign" style="text;html=1;resizable=0;points=[];align=center;verticalAlign=middle;labelBackgroundColor=#ffffff;fontColor=#000000;" vertex="1" connectable="0" parent="xhn0Lpm8mwDRlb0D4wU6-84">
          <mxGeometry x="-0.1472" relative="1" as="geometry">
            <mxPoint x="7" as="offset" />
          </mxGeometry>
        </mxCell>
        <mxCell id="xhn0Lpm8mwDRlb0D4wU6-86" style="edgeStyle=orthogonalEdgeStyle;rounded=0;orthogonalLoop=1;jettySize=auto;html=1;exitX=0.97;exitY=0.5;exitDx=0;exitDy=0;exitPerimeter=0;entryX=0.5;entryY=0.96;entryDx=0;entryDy=0;entryPerimeter=0;startArrow=blockThin;startFill=1;endArrow=blockThin;endFill=1;strokeColor=#000000;fontColor=#000000;" edge="1" parent="xhn0Lpm8mwDRlb0D4wU6-79" source="xhn0Lpm8mwDRlb0D4wU6-88" target="xhn0Lpm8mwDRlb0D4wU6-83">
          <mxGeometry relative="1" as="geometry" />
        </mxCell>
        <mxCell id="xhn0Lpm8mwDRlb0D4wU6-87" value="feign" style="text;html=1;resizable=0;points=[];align=center;verticalAlign=middle;labelBackgroundColor=#ffffff;fontColor=#000000;" vertex="1" connectable="0" parent="xhn0Lpm8mwDRlb0D4wU6-86">
          <mxGeometry x="-0.34" y="31" relative="1" as="geometry">
            <mxPoint x="31" y="-31" as="offset" />
          </mxGeometry>
        </mxCell>
        <mxCell id="xhn0Lpm8mwDRlb0D4wU6-88" value="Service C" style="verticalLabelPosition=bottom;html=1;verticalAlign=top;align=center;strokeColor=none;fillColor=#00BEF2;shape=mxgraph.azure.cloud_service;dashed=1;aspect=fixed;" vertex="1" parent="xhn0Lpm8mwDRlb0D4wU6-79">
          <mxGeometry x="112.5" y="195" width="75" height="60" as="geometry" />
        </mxCell>
        <mxCell id="xhn0Lpm8mwDRlb0D4wU6-89" style="edgeStyle=orthogonalEdgeStyle;rounded=0;orthogonalLoop=1;jettySize=auto;html=1;exitX=0.5;exitY=0.96;exitDx=0;exitDy=0;exitPerimeter=0;entryX=0.03;entryY=0.5;entryDx=0;entryDy=0;entryPerimeter=0;startArrow=blockThin;startFill=1;endArrow=blockThin;endFill=1;strokeColor=#000000;fontColor=#000000;" edge="1" parent="xhn0Lpm8mwDRlb0D4wU6-79" source="xhn0Lpm8mwDRlb0D4wU6-82" target="xhn0Lpm8mwDRlb0D4wU6-88">
          <mxGeometry relative="1" as="geometry">
            <Array as="points">
              <mxPoint x="51.5" y="225" />
            </Array>
          </mxGeometry>
        </mxCell>
        <mxCell id="xhn0Lpm8mwDRlb0D4wU6-90" value="feign" style="text;html=1;resizable=0;points=[];align=center;verticalAlign=middle;labelBackgroundColor=#ffffff;fontColor=#000000;" vertex="1" connectable="0" parent="xhn0Lpm8mwDRlb0D4wU6-89">
          <mxGeometry x="0.0383" relative="1" as="geometry">
            <mxPoint y="-3" as="offset" />
          </mxGeometry>
        </mxCell>
        <mxCell id="xhn0Lpm8mwDRlb0D4wU6-91" value="upms" style="verticalLabelPosition=bottom;html=1;verticalAlign=top;align=center;strokeColor=none;fillColor=#00BEF2;shape=mxgraph.azure.cloud_service;dashed=1;aspect=fixed;" vertex="1" parent="xhn0Lpm8mwDRlb0D4wU6-79">
          <mxGeometry x="124" y="119.5" width="50" height="40" as="geometry" />
        </mxCell>
        <mxCell id="xhn0Lpm8mwDRlb0D4wU6-92" style="edgeStyle=orthogonalEdgeStyle;rounded=0;orthogonalLoop=1;jettySize=auto;html=1;exitX=0.9;exitY=0.78;exitDx=0;exitDy=0;exitPerimeter=0;entryX=0.5;entryY=0.09;entryDx=0;entryDy=0;entryPerimeter=0;startArrow=none;startFill=0;endArrow=blockThin;endFill=1;strokeColor=#000000;fontColor=#000000;" edge="1" parent="xhn0Lpm8mwDRlb0D4wU6-79" source="xhn0Lpm8mwDRlb0D4wU6-82" target="xhn0Lpm8mwDRlb0D4wU6-91">
          <mxGeometry relative="1" as="geometry" />
        </mxCell>
        <mxCell id="xhn0Lpm8mwDRlb0D4wU6-93" style="edgeStyle=orthogonalEdgeStyle;rounded=0;orthogonalLoop=1;jettySize=auto;html=1;exitX=0.22;exitY=0.8;exitDx=0;exitDy=0;exitPerimeter=0;entryX=0.97;entryY=0.5;entryDx=0;entryDy=0;entryPerimeter=0;startArrow=none;startFill=0;endArrow=blockThin;endFill=1;strokeColor=#000000;fontColor=#000000;" edge="1" parent="xhn0Lpm8mwDRlb0D4wU6-79" source="xhn0Lpm8mwDRlb0D4wU6-83" target="xhn0Lpm8mwDRlb0D4wU6-91">
          <mxGeometry relative="1" as="geometry">
            <Array as="points">
              <mxPoint x="227.5" y="140" />
            </Array>
          </mxGeometry>
        </mxCell>
        <mxCell id="xhn0Lpm8mwDRlb0D4wU6-94" style="edgeStyle=orthogonalEdgeStyle;rounded=0;orthogonalLoop=1;jettySize=auto;html=1;exitX=0.5;exitY=0.09;exitDx=0;exitDy=0;exitPerimeter=0;entryX=0.03;entryY=0.5;entryDx=0;entryDy=0;entryPerimeter=0;startArrow=none;startFill=0;endArrow=blockThin;endFill=1;strokeColor=#000000;fontColor=#000000;" edge="1" parent="xhn0Lpm8mwDRlb0D4wU6-79" source="xhn0Lpm8mwDRlb0D4wU6-88" target="xhn0Lpm8mwDRlb0D4wU6-91">
          <mxGeometry relative="1" as="geometry">
            <Array as="points">
              <mxPoint x="149.5" y="189" />
              <mxPoint x="94.5" y="189" />
              <mxPoint x="94.5" y="140" />
            </Array>
          </mxGeometry>
        </mxCell>
        <mxCell id="xhn0Lpm8mwDRlb0D4wU6-95" style="edgeStyle=orthogonalEdgeStyle;rounded=0;orthogonalLoop=1;jettySize=auto;html=1;exitX=0;exitY=0.25;exitDx=0;exitDy=0;entryX=0.42;entryY=-0.006;entryDx=0;entryDy=0;entryPerimeter=0;startArrow=none;startFill=0;endArrow=blockThin;endFill=1;strokeColor=#000000;fontColor=#000000;" edge="1" parent="WIyWlLk6GJQsqaUBKTNV-1" source="xhn0Lpm8mwDRlb0D4wU6-52" target="xhn0Lpm8mwDRlb0D4wU6-16">
          <mxGeometry relative="1" as="geometry" />
        </mxCell>
        <mxCell id="xhn0Lpm8mwDRlb0D4wU6-96" value="拉取服务列表" style="text;html=1;resizable=0;points=[];align=center;verticalAlign=middle;labelBackgroundColor=#ffffff;fontColor=#000000;" vertex="1" connectable="0" parent="xhn0Lpm8mwDRlb0D4wU6-95">
          <mxGeometry x="0.0586" y="26" relative="1" as="geometry">
            <mxPoint as="offset" />
          </mxGeometry>
        </mxCell>
        <mxCell id="xhn0Lpm8mwDRlb0D4wU6-97" value="" style="group" vertex="1" connectable="0" parent="WIyWlLk6GJQsqaUBKTNV-1">
          <mxGeometry x="1308" y="-1640.5" width="136" height="143" as="geometry" />
        </mxCell>
        <mxCell id="xhn0Lpm8mwDRlb0D4wU6-98" value="配置中心集群" style="rounded=1;whiteSpace=wrap;html=1;dashed=1;strokeColor=#FF8000;fillColor=none;strokeWidth=1;fontStyle=1;verticalAlign=bottom;arcSize=6;" vertex="1" parent="xhn0Lpm8mwDRlb0D4wU6-97">
          <mxGeometry width="136" height="143" as="geometry" />
        </mxCell>
        <mxCell id="xhn0Lpm8mwDRlb0D4wU6-99" value="CONFIG-SERVER" style="rounded=1;whiteSpace=wrap;html=1;strokeColor=#D4E1F5;strokeWidth=2;fillColor=#CCCCCC;gradientColor=none;fontColor=#000000;arcSize=0;" vertex="1" parent="xhn0Lpm8mwDRlb0D4wU6-97">
          <mxGeometry x="10.5" y="24.5" width="115" height="25" as="geometry" />
        </mxCell>
        <mxCell id="xhn0Lpm8mwDRlb0D4wU6-100" value="CONFIG-SERVER" style="rounded=1;whiteSpace=wrap;html=1;strokeColor=#D4E1F5;strokeWidth=2;fillColor=#CCCCCC;gradientColor=none;fontColor=#000000;arcSize=0;" vertex="1" parent="xhn0Lpm8mwDRlb0D4wU6-97">
          <mxGeometry x="10.5" y="59" width="115" height="25" as="geometry" />
        </mxCell>
        <mxCell id="xhn0Lpm8mwDRlb0D4wU6-101" value="CONFIG-SERVER" style="rounded=1;whiteSpace=wrap;html=1;strokeColor=#D4E1F5;strokeWidth=2;fillColor=#CCCCCC;gradientColor=none;fontColor=#000000;arcSize=0;" vertex="1" parent="xhn0Lpm8mwDRlb0D4wU6-97">
          <mxGeometry x="10.5" y="94" width="115" height="25" as="geometry" />
        </mxCell>
        <mxCell id="xhn0Lpm8mwDRlb0D4wU6-102" style="edgeStyle=orthogonalEdgeStyle;rounded=0;orthogonalLoop=1;jettySize=auto;html=1;exitX=-0.004;exitY=0.351;exitDx=0;exitDy=0;startArrow=none;startFill=0;endArrow=blockThin;endFill=1;strokeColor=#000000;fontColor=#000000;entryX=0.935;entryY=-0.004;entryDx=0;entryDy=0;entryPerimeter=0;exitPerimeter=0;" edge="1" parent="WIyWlLk6GJQsqaUBKTNV-1" source="xhn0Lpm8mwDRlb0D4wU6-98" target="xhn0Lpm8mwDRlb0D4wU6-52">
          <mxGeometry relative="1" as="geometry">
            <mxPoint x="1291" y="-1510.5" as="targetPoint" />
            <Array as="points">
              <mxPoint x="1281" y="-1590.5" />
            </Array>
          </mxGeometry>
        </mxCell>
        <mxCell id="xhn0Lpm8mwDRlb0D4wU6-103" value="注册" style="text;html=1;resizable=0;points=[];align=center;verticalAlign=middle;labelBackgroundColor=#ffffff;fontColor=#000000;" vertex="1" connectable="0" parent="xhn0Lpm8mwDRlb0D4wU6-102">
          <mxGeometry x="0.4505" relative="1" as="geometry">
            <mxPoint as="offset" />
          </mxGeometry>
        </mxCell>
        <mxCell id="xhn0Lpm8mwDRlb0D4wU6-104" style="edgeStyle=orthogonalEdgeStyle;rounded=0;orthogonalLoop=1;jettySize=auto;html=1;entryX=0.829;entryY=-0.011;entryDx=0;entryDy=0;entryPerimeter=0;startArrow=none;startFill=0;endArrow=blockThin;endFill=1;strokeColor=#000000;fontColor=#000000;" edge="1" parent="WIyWlLk6GJQsqaUBKTNV-1" source="xhn0Lpm8mwDRlb0D4wU6-98" target="xhn0Lpm8mwDRlb0D4wU6-80">
          <mxGeometry relative="1" as="geometry">
            <Array as="points">
              <mxPoint x="1363" y="-1400.5" />
              <mxPoint x="1363" y="-1400.5" />
            </Array>
          </mxGeometry>
        </mxCell>
        <mxCell id="xhn0Lpm8mwDRlb0D4wU6-105" value="拉取配置" style="text;html=1;resizable=0;points=[];align=center;verticalAlign=middle;labelBackgroundColor=#ffffff;fontColor=#000000;" vertex="1" connectable="0" parent="xhn0Lpm8mwDRlb0D4wU6-104">
          <mxGeometry x="-0.1337" relative="1" as="geometry">
            <mxPoint as="offset" />
          </mxGeometry>
        </mxCell>
        <mxCell id="xhn0Lpm8mwDRlb0D4wU6-106" value="" style="group" vertex="1" connectable="0" parent="WIyWlLk6GJQsqaUBKTNV-1">
          <mxGeometry x="1516" y="-1640.5" width="150" height="560" as="geometry" />
        </mxCell>
        <mxCell id="xhn0Lpm8mwDRlb0D4wU6-107" value="&lt;br&gt;服务监控&amp;amp;服务保护" style="rounded=1;whiteSpace=wrap;html=1;dashed=1;strokeColor=#FF8000;fillColor=none;strokeWidth=2;fontStyle=1;verticalAlign=top;" vertex="1" parent="xhn0Lpm8mwDRlb0D4wU6-106">
          <mxGeometry width="150" height="560" as="geometry" />
        </mxCell>
        <mxCell id="xhn0Lpm8mwDRlb0D4wU6-108" value="Hystrix&lt;br&gt;Turbine&lt;br&gt;聚合监控" style="rounded=1;whiteSpace=wrap;html=1;fillColor=#FF99FF;strokeColor=#80FF00;strokeWidth=2;" vertex="1" parent="xhn0Lpm8mwDRlb0D4wU6-106">
          <mxGeometry x="25" y="47.5" width="100" height="55" as="geometry" />
        </mxCell>
        <mxCell id="xhn0Lpm8mwDRlb0D4wU6-109" value="Hystrix&lt;br&gt;熔断机制" style="rounded=1;whiteSpace=wrap;html=1;fillColor=#FF99FF;strokeColor=#80FF00;strokeWidth=2;" vertex="1" parent="xhn0Lpm8mwDRlb0D4wU6-106">
          <mxGeometry x="25" y="111" width="100" height="55" as="geometry" />
        </mxCell>
        <mxCell id="xhn0Lpm8mwDRlb0D4wU6-110" value="sleuth&lt;br&gt;服务追踪" style="rounded=1;whiteSpace=wrap;html=1;fillColor=#CCFFE6;strokeColor=#80FF00;strokeWidth=2;" vertex="1" parent="xhn0Lpm8mwDRlb0D4wU6-106">
          <mxGeometry x="25" y="175" width="100" height="55" as="geometry" />
        </mxCell>
        <mxCell id="xhn0Lpm8mwDRlb0D4wU6-111" value="zipkin&lt;br&gt;服务追踪监控" style="rounded=1;whiteSpace=wrap;html=1;fillColor=#CCFFE6;strokeColor=#80FF00;strokeWidth=2;" vertex="1" parent="xhn0Lpm8mwDRlb0D4wU6-106">
          <mxGeometry x="25" y="239" width="100" height="55" as="geometry" />
        </mxCell>
        <mxCell id="xhn0Lpm8mwDRlb0D4wU6-112" value="springboot&lt;br&gt;admin&lt;br&gt;健康服务检查" style="rounded=1;whiteSpace=wrap;html=1;fillColor=#CCFFE6;strokeColor=#80FF00;strokeWidth=2;" vertex="1" parent="xhn0Lpm8mwDRlb0D4wU6-106">
          <mxGeometry x="25" y="303" width="100" height="55" as="geometry" />
        </mxCell>
        <mxCell id="xhn0Lpm8mwDRlb0D4wU6-113" value="actuator&lt;br&gt;服务监控监控" style="rounded=1;whiteSpace=wrap;html=1;fillColor=#CCFFE6;strokeColor=#80FF00;strokeWidth=2;" vertex="1" parent="xhn0Lpm8mwDRlb0D4wU6-106">
          <mxGeometry x="25" y="367" width="100" height="55" as="geometry" />
        </mxCell>
        <mxCell id="xhn0Lpm8mwDRlb0D4wU6-114" value="mertics&lt;br&gt;指标监控" style="rounded=1;whiteSpace=wrap;html=1;fillColor=#CCFFE6;strokeColor=#80FF00;strokeWidth=2;" vertex="1" parent="xhn0Lpm8mwDRlb0D4wU6-106">
          <mxGeometry x="25" y="431" width="100" height="55" as="geometry" />
        </mxCell>
        <mxCell id="xhn0Lpm8mwDRlb0D4wU6-115" value="springcloud&lt;br&gt;ratelimit&lt;br&gt;限流服务" style="rounded=1;whiteSpace=wrap;html=1;fillColor=#CCFFE6;strokeColor=#80FF00;strokeWidth=2;" vertex="1" parent="xhn0Lpm8mwDRlb0D4wU6-106">
          <mxGeometry x="25" y="494.5" width="100" height="55" as="geometry" />
        </mxCell>
        <mxCell id="xhn0Lpm8mwDRlb0D4wU6-116" style="edgeStyle=orthogonalEdgeStyle;rounded=0;orthogonalLoop=1;jettySize=auto;html=1;exitX=0;exitY=0.5;exitDx=0;exitDy=0;entryX=1.009;entryY=0.204;entryDx=0;entryDy=0;entryPerimeter=0;startArrow=none;startFill=0;endArrow=blockThin;endFill=1;strokeColor=#000000;fontColor=#000000;" edge="1" parent="WIyWlLk6GJQsqaUBKTNV-1" source="xhn0Lpm8mwDRlb0D4wU6-107" target="xhn0Lpm8mwDRlb0D4wU6-80">
          <mxGeometry relative="1" as="geometry" />
        </mxCell>
        <mxCell id="xhn0Lpm8mwDRlb0D4wU6-117" value="redis" style="shadow=0;dashed=0;html=1;strokeColor=none;fillColor=#00BEF2;labelPosition=center;verticalLabelPosition=bottom;verticalAlign=top;align=center;shape=mxgraph.azure.sql_datasync;pointerEvents=1;labelBackgroundColor=#ffffff;fontColor=#000000;" vertex="1" parent="WIyWlLk6GJQsqaUBKTNV-1">
          <mxGeometry x="1767" y="-1299.5" width="50" height="50" as="geometry" />
        </mxCell>
        <mxCell id="xhn0Lpm8mwDRlb0D4wU6-118" value="redis" style="shadow=0;dashed=0;html=1;strokeColor=none;fillColor=#00BEF2;labelPosition=center;verticalLabelPosition=bottom;verticalAlign=top;align=center;shape=mxgraph.azure.sql_datasync;pointerEvents=1;labelBackgroundColor=#ffffff;fontColor=#000000;" vertex="1" parent="WIyWlLk6GJQsqaUBKTNV-1">
          <mxGeometry x="1843.5" y="-1299.5" width="50" height="50" as="geometry" />
        </mxCell>
        <mxCell id="xhn0Lpm8mwDRlb0D4wU6-119" value="redis" style="shadow=0;dashed=0;html=1;strokeColor=none;fillColor=#00BEF2;labelPosition=center;verticalLabelPosition=bottom;verticalAlign=top;align=center;shape=mxgraph.azure.sql_datasync;pointerEvents=1;labelBackgroundColor=#ffffff;fontColor=#000000;" vertex="1" parent="WIyWlLk6GJQsqaUBKTNV-1">
          <mxGeometry x="1920.5" y="-1299.5" width="50" height="50" as="geometry" />
        </mxCell>
        <mxCell id="xhn0Lpm8mwDRlb0D4wU6-120" value="memcached" style="shadow=0;dashed=0;html=1;strokeColor=none;fillColor=#00BEF2;labelPosition=center;verticalLabelPosition=bottom;verticalAlign=top;align=center;shape=mxgraph.azure.sql_datasync;pointerEvents=1;labelBackgroundColor=#ffffff;fontColor=#000000;" vertex="1" parent="WIyWlLk6GJQsqaUBKTNV-1">
          <mxGeometry x="1997.5" y="-1299.5" width="50" height="50" as="geometry" />
        </mxCell>
        <mxCell id="xhn0Lpm8mwDRlb0D4wU6-121" value="memcached" style="shadow=0;dashed=0;html=1;strokeColor=none;fillColor=#00BEF2;labelPosition=center;verticalLabelPosition=bottom;verticalAlign=top;align=center;shape=mxgraph.azure.sql_datasync;pointerEvents=1;labelBackgroundColor=#ffffff;fontColor=#000000;" vertex="1" parent="WIyWlLk6GJQsqaUBKTNV-1">
          <mxGeometry x="2074.5" y="-1299.5" width="50" height="50" as="geometry" />
        </mxCell>
        <mxCell id="xhn0Lpm8mwDRlb0D4wU6-122" style="edgeStyle=orthogonalEdgeStyle;rounded=0;orthogonalLoop=1;jettySize=auto;html=1;exitX=1;exitY=0.5;exitDx=0;exitDy=0;entryX=1;entryY=0.5;entryDx=0;entryDy=0;startArrow=none;startFill=0;endArrow=blockThin;endFill=1;strokeColor=#000000;fontColor=#000000;" edge="1" parent="WIyWlLk6GJQsqaUBKTNV-1" source="xhn0Lpm8mwDRlb0D4wU6-124" target="xhn0Lpm8mwDRlb0D4wU6-3">
          <mxGeometry relative="1" as="geometry" />
        </mxCell>
        <mxCell id="xhn0Lpm8mwDRlb0D4wU6-123" style="edgeStyle=orthogonalEdgeStyle;rounded=0;orthogonalLoop=1;jettySize=auto;html=1;entryX=1.002;entryY=0.387;entryDx=0;entryDy=0;entryPerimeter=0;startArrow=blockThin;startFill=1;endArrow=blockThin;endFill=1;strokeColor=#000000;fontColor=#000000;" edge="1" parent="WIyWlLk6GJQsqaUBKTNV-1" source="xhn0Lpm8mwDRlb0D4wU6-124" target="xhn0Lpm8mwDRlb0D4wU6-80">
          <mxGeometry relative="1" as="geometry">
            <Array as="points">
              <mxPoint x="1706" y="-1124.5" />
              <mxPoint x="1706" y="-1006.5" />
            </Array>
          </mxGeometry>
        </mxCell>
        <mxCell id="xhn0Lpm8mwDRlb0D4wU6-124" value="&lt;blockquote style=&quot;margin: 0 0 0 40px ; border: none ; padding: 0px&quot;&gt;数据库集群&lt;/blockquote&gt;" style="rounded=1;whiteSpace=wrap;html=1;dashed=1;strokeColor=#FF8000;fillColor=none;strokeWidth=2;fontStyle=1;verticalAlign=top;arcSize=19;align=left;" vertex="1" parent="WIyWlLk6GJQsqaUBKTNV-1">
          <mxGeometry x="1736" y="-1189.5" width="510" height="129" as="geometry" />
        </mxCell>
        <mxCell id="xhn0Lpm8mwDRlb0D4wU6-125" value="ELK" style="verticalLabelPosition=bottom;html=1;verticalAlign=top;align=center;strokeColor=none;fillColor=#00BEF2;shape=mxgraph.azure.sql_reporting;labelBackgroundColor=#ffffff;fontColor=#000000;" vertex="1" parent="WIyWlLk6GJQsqaUBKTNV-1">
          <mxGeometry x="1843.5" y="-1017.5" width="55" height="55" as="geometry" />
        </mxCell>
        <mxCell id="xhn0Lpm8mwDRlb0D4wU6-126" value="ELK" style="verticalLabelPosition=bottom;html=1;verticalAlign=top;align=center;strokeColor=none;fillColor=#00BEF2;shape=mxgraph.azure.sql_reporting;labelBackgroundColor=#ffffff;fontColor=#000000;" vertex="1" parent="WIyWlLk6GJQsqaUBKTNV-1">
          <mxGeometry x="1767" y="-1017.5" width="55" height="55" as="geometry" />
        </mxCell>
        <mxCell id="xhn0Lpm8mwDRlb0D4wU6-127" value="ELK" style="verticalLabelPosition=bottom;html=1;verticalAlign=top;align=center;strokeColor=none;fillColor=#00BEF2;shape=mxgraph.azure.sql_reporting;labelBackgroundColor=#ffffff;fontColor=#000000;" vertex="1" parent="WIyWlLk6GJQsqaUBKTNV-1">
          <mxGeometry x="1920.5" y="-1017.5" width="55" height="55" as="geometry" />
        </mxCell>
        <mxCell id="xhn0Lpm8mwDRlb0D4wU6-128" value="mysql" style="verticalLabelPosition=bottom;html=1;verticalAlign=top;align=center;strokeColor=none;fillColor=#00BEF2;shape=mxgraph.azure.database;labelBackgroundColor=#ffffff;fontColor=#000000;" vertex="1" parent="WIyWlLk6GJQsqaUBKTNV-1">
          <mxGeometry x="1767" y="-1157.5" width="60" height="65" as="geometry" />
        </mxCell>
        <mxCell id="xhn0Lpm8mwDRlb0D4wU6-129" value="mysql" style="verticalLabelPosition=bottom;html=1;verticalAlign=top;align=center;strokeColor=none;fillColor=#00BEF2;shape=mxgraph.azure.database;labelBackgroundColor=#ffffff;fontColor=#000000;" vertex="1" parent="WIyWlLk6GJQsqaUBKTNV-1">
          <mxGeometry x="1843.5" y="-1157" width="60" height="65" as="geometry" />
        </mxCell>
        <mxCell id="xhn0Lpm8mwDRlb0D4wU6-130" value="mysql" style="verticalLabelPosition=bottom;html=1;verticalAlign=top;align=center;strokeColor=none;fillColor=#00BEF2;shape=mxgraph.azure.database;labelBackgroundColor=#ffffff;fontColor=#000000;" vertex="1" parent="WIyWlLk6GJQsqaUBKTNV-1">
          <mxGeometry x="1920.5" y="-1154.5" width="60" height="65" as="geometry" />
        </mxCell>
        <mxCell id="xhn0Lpm8mwDRlb0D4wU6-131" value="mysql" style="verticalLabelPosition=bottom;html=1;verticalAlign=top;align=center;strokeColor=none;fillColor=#00BEF2;shape=mxgraph.azure.database;labelBackgroundColor=#ffffff;fontColor=#000000;" vertex="1" parent="WIyWlLk6GJQsqaUBKTNV-1">
          <mxGeometry x="1997.5" y="-1155.5" width="60" height="65" as="geometry" />
        </mxCell>
        <mxCell id="xhn0Lpm8mwDRlb0D4wU6-132" value="mysql" style="verticalLabelPosition=bottom;html=1;verticalAlign=top;align=center;strokeColor=none;fillColor=#00BEF2;shape=mxgraph.azure.database;labelBackgroundColor=#ffffff;fontColor=#000000;" vertex="1" parent="WIyWlLk6GJQsqaUBKTNV-1">
          <mxGeometry x="2074.5" y="-1154.5" width="60" height="65" as="geometry" />
        </mxCell>
        <mxCell id="xhn0Lpm8mwDRlb0D4wU6-133" value="mysql" style="verticalLabelPosition=bottom;html=1;verticalAlign=top;align=center;strokeColor=none;fillColor=#00BEF2;shape=mxgraph.azure.database;labelBackgroundColor=#ffffff;fontColor=#000000;" vertex="1" parent="WIyWlLk6GJQsqaUBKTNV-1">
          <mxGeometry x="2151.5" y="-1154.5" width="60" height="65" as="geometry" />
        </mxCell>
        <mxCell id="xhn0Lpm8mwDRlb0D4wU6-134" value="&lt;blockquote style=&quot;margin: 0 0 0 40px ; border: none ; padding: 0px&quot;&gt;消息总线集群&lt;/blockquote&gt;" style="rounded=1;whiteSpace=wrap;html=1;dashed=1;strokeColor=#FF8000;fillColor=none;strokeWidth=2;fontStyle=1;verticalAlign=top;arcSize=19;align=left;" vertex="1" parent="WIyWlLk6GJQsqaUBKTNV-1">
          <mxGeometry x="1734.5" y="-907" width="273" height="115" as="geometry" />
        </mxCell>
        <mxCell id="xhn0Lpm8mwDRlb0D4wU6-135" value="OSS" style="verticalLabelPosition=bottom;html=1;verticalAlign=top;align=center;strokeColor=none;fillColor=#00BEF2;shape=mxgraph.azure.cloud_services_configuration_file;pointerEvents=1;dashed=1;fontColor=#000000;" vertex="1" parent="WIyWlLk6GJQsqaUBKTNV-1">
          <mxGeometry x="1846" y="-715.5" width="55" height="55" as="geometry" />
        </mxCell>
        <mxCell id="xhn0Lpm8mwDRlb0D4wU6-136" value="OSS" style="verticalLabelPosition=bottom;html=1;verticalAlign=top;align=center;strokeColor=none;fillColor=#00BEF2;shape=mxgraph.azure.cloud_services_configuration_file;pointerEvents=1;dashed=1;fontColor=#000000;" vertex="1" parent="WIyWlLk6GJQsqaUBKTNV-1">
          <mxGeometry x="1925" y="-715.5" width="55" height="55" as="geometry" />
        </mxCell>
        <mxCell id="xhn0Lpm8mwDRlb0D4wU6-137" value="rabbitMQ" style="verticalLabelPosition=bottom;html=1;verticalAlign=top;align=center;strokeColor=none;fillColor=#00BEF2;shape=mxgraph.azure.service_bus;pointerEvents=1;fontFamily=Helvetica;fontSize=12;fontColor=#000000;strokeWidth=2;" vertex="1" parent="WIyWlLk6GJQsqaUBKTNV-1">
          <mxGeometry x="1767" y="-880" width="55" height="55" as="geometry" />
        </mxCell>
        <mxCell id="xhn0Lpm8mwDRlb0D4wU6-138" value="rabbitMQ" style="verticalLabelPosition=bottom;html=1;verticalAlign=top;align=center;strokeColor=none;fillColor=#00BEF2;shape=mxgraph.azure.service_bus;pointerEvents=1;fontFamily=Helvetica;fontSize=12;fontColor=#000000;strokeWidth=2;" vertex="1" parent="WIyWlLk6GJQsqaUBKTNV-1">
          <mxGeometry x="1841" y="-880" width="55" height="55" as="geometry" />
        </mxCell>
        <mxCell id="xhn0Lpm8mwDRlb0D4wU6-139" value="rabbitMQ" style="verticalLabelPosition=bottom;html=1;verticalAlign=top;align=center;strokeColor=none;fillColor=#00BEF2;shape=mxgraph.azure.service_bus;pointerEvents=1;fontFamily=Helvetica;fontSize=12;fontColor=#000000;strokeWidth=2;" vertex="1" parent="WIyWlLk6GJQsqaUBKTNV-1">
          <mxGeometry x="1915" y="-880" width="55" height="55" as="geometry" />
        </mxCell>
        <mxCell id="xhn0Lpm8mwDRlb0D4wU6-140" style="edgeStyle=orthogonalEdgeStyle;rounded=0;orthogonalLoop=1;jettySize=auto;html=1;entryX=0;entryY=0.5;entryDx=0;entryDy=0;startArrow=blockThin;startFill=1;endArrow=blockThin;endFill=1;strokeColor=#000000;fontColor=#000000;" edge="1" parent="WIyWlLk6GJQsqaUBKTNV-1" source="xhn0Lpm8mwDRlb0D4wU6-80" target="xhn0Lpm8mwDRlb0D4wU6-2">
          <mxGeometry relative="1" as="geometry">
            <Array as="points">
              <mxPoint x="1347" y="-687.5" />
            </Array>
          </mxGeometry>
        </mxCell>
        <mxCell id="xhn0Lpm8mwDRlb0D4wU6-141" style="edgeStyle=orthogonalEdgeStyle;rounded=0;orthogonalLoop=1;jettySize=auto;html=1;entryX=0;entryY=0.25;entryDx=0;entryDy=0;startArrow=blockThin;startFill=1;endArrow=blockThin;endFill=1;strokeColor=#000000;fontColor=#000000;" edge="1" parent="WIyWlLk6GJQsqaUBKTNV-1" source="xhn0Lpm8mwDRlb0D4wU6-80" target="xhn0Lpm8mwDRlb0D4wU6-134">
          <mxGeometry relative="1" as="geometry">
            <Array as="points">
              <mxPoint x="1596" y="-878.5" />
              <mxPoint x="1596" y="-878.5" />
            </Array>
          </mxGeometry>
        </mxCell>
        <mxCell id="xhn0Lpm8mwDRlb0D4wU6-142" style="edgeStyle=orthogonalEdgeStyle;rounded=0;orthogonalLoop=1;jettySize=auto;html=1;entryX=-0.007;entryY=0.643;entryDx=0;entryDy=0;entryPerimeter=0;startArrow=blockThin;startFill=1;endArrow=blockThin;endFill=1;strokeColor=#000000;fontColor=#000000;" edge="1" parent="WIyWlLk6GJQsqaUBKTNV-1" source="xhn0Lpm8mwDRlb0D4wU6-80" target="xhn0Lpm8mwDRlb0D4wU6-3">
          <mxGeometry relative="1" as="geometry">
            <Array as="points">
              <mxPoint x="1536" y="-973.5" />
              <mxPoint x="1536" y="-973.5" />
            </Array>
          </mxGeometry>
        </mxCell>
        <mxCell id="xhn0Lpm8mwDRlb0D4wU6-143" value="" style="shape=curlyBracket;whiteSpace=wrap;html=1;rounded=1;labelBackgroundColor=#ffffff;strokeColor=#000000;strokeWidth=2;fillColor=#000000;gradientColor=none;fontColor=#000000;align=left;" vertex="1" parent="WIyWlLk6GJQsqaUBKTNV-1">
          <mxGeometry x="255.5" y="-590.5" width="20" height="110" as="geometry" />
        </mxCell>
        <mxCell id="xhn0Lpm8mwDRlb0D4wU6-144" value="HAproxy实现nginx集群。&lt;br&gt;Nginx此处主要做前端发布容器。&lt;br&gt;前端分离-静态资源" style="text;html=1;strokeColor=none;fillColor=none;align=center;verticalAlign=middle;whiteSpace=wrap;rounded=0;labelBackgroundColor=#ffffff;fontColor=#000000;" vertex="1" parent="WIyWlLk6GJQsqaUBKTNV-1">
          <mxGeometry x="275.5" y="-589.5" width="184" height="108" as="geometry" />
        </mxCell>
        <mxCell id="xhn0Lpm8mwDRlb0D4wU6-145" value="" style="shape=curlyBracket;whiteSpace=wrap;html=1;rounded=1;labelBackgroundColor=#ffffff;strokeColor=#000000;strokeWidth=2;fillColor=#000000;gradientColor=none;fontColor=#000000;align=left;flipH=1;" vertex="1" parent="WIyWlLk6GJQsqaUBKTNV-1">
          <mxGeometry x="455" y="-590.5" width="20" height="110" as="geometry" />
        </mxCell>
        <mxCell id="xhn0Lpm8mwDRlb0D4wU6-146" value="访问层" style="rounded=0;whiteSpace=wrap;html=1;labelBackgroundColor=none;strokeColor=#000000;strokeWidth=2;fillColor=#FF9933;gradientColor=none;fontColor=#000000;align=center;fontSize=18;" vertex="1" parent="WIyWlLk6GJQsqaUBKTNV-1">
          <mxGeometry x="109" y="-385.5" width="100" height="70" as="geometry" />
        </mxCell>
        <mxCell id="xhn0Lpm8mwDRlb0D4wU6-147" value="Load&lt;br&gt;Blancer" style="rounded=0;whiteSpace=wrap;html=1;labelBackgroundColor=none;strokeColor=#000000;strokeWidth=2;fillColor=#FF9933;gradientColor=none;fontColor=#000000;align=center;fontSize=18;" vertex="1" parent="WIyWlLk6GJQsqaUBKTNV-1">
          <mxGeometry x="320" y="-385.5" width="100" height="70" as="geometry" />
        </mxCell>
        <mxCell id="xhn0Lpm8mwDRlb0D4wU6-148" value="接口层" style="rounded=0;whiteSpace=wrap;html=1;labelBackgroundColor=none;strokeColor=#000000;strokeWidth=2;fillColor=#FF9933;gradientColor=none;fontColor=#000000;align=center;fontSize=18;" vertex="1" parent="WIyWlLk6GJQsqaUBKTNV-1">
          <mxGeometry x="604.5" y="-385.5" width="100" height="70" as="geometry" />
        </mxCell>
        <mxCell id="xhn0Lpm8mwDRlb0D4wU6-149" value="API&lt;br&gt;Gateway" style="rounded=0;whiteSpace=wrap;html=1;labelBackgroundColor=none;strokeColor=#000000;strokeWidth=2;fillColor=#FF9933;gradientColor=none;fontColor=#000000;align=center;fontSize=18;" vertex="1" parent="WIyWlLk6GJQsqaUBKTNV-1">
          <mxGeometry x="705.5" y="-385.5" width="100" height="70" as="geometry" />
        </mxCell>
        <mxCell id="xhn0Lpm8mwDRlb0D4wU6-150" value="" style="shape=curlyBracket;whiteSpace=wrap;html=1;rounded=1;labelBackgroundColor=#ffffff;strokeColor=#000000;strokeWidth=2;fillColor=#000000;gradientColor=none;fontColor=#000000;align=left;" vertex="1" parent="WIyWlLk6GJQsqaUBKTNV-1">
          <mxGeometry x="519.5" y="-590.5" width="20" height="110" as="geometry" />
        </mxCell>
        <mxCell id="xhn0Lpm8mwDRlb0D4wU6-151" value="协议支持：websorcet，http/https&lt;br&gt;数据格式：json，html&lt;br&gt;接口类型：rest&lt;br&gt;网关类型：内部GW，H5GW&lt;br&gt;无线GW，第三方GW，第三方GW&lt;br&gt;技术栈：zuul" style="text;html=1;strokeColor=none;fillColor=none;align=left;verticalAlign=middle;whiteSpace=wrap;rounded=0;labelBackgroundColor=#ffffff;fontColor=#000000;" vertex="1" parent="WIyWlLk6GJQsqaUBKTNV-1">
          <mxGeometry x="538.5" y="-589.5" width="184" height="108" as="geometry" />
        </mxCell>
        <mxCell id="xhn0Lpm8mwDRlb0D4wU6-152" value="" style="shape=curlyBracket;whiteSpace=wrap;html=1;rounded=1;labelBackgroundColor=#ffffff;strokeColor=#000000;strokeWidth=2;fillColor=#000000;gradientColor=none;fontColor=#000000;align=left;flipH=1;" vertex="1" parent="WIyWlLk6GJQsqaUBKTNV-1">
          <mxGeometry x="719" y="-590.5" width="20" height="110" as="geometry" />
        </mxCell>
        <mxCell id="xhn0Lpm8mwDRlb0D4wU6-153" value="" style="shape=curlyBracket;whiteSpace=wrap;html=1;rounded=1;labelBackgroundColor=#ffffff;strokeColor=#000000;strokeWidth=2;fillColor=#000000;gradientColor=none;fontColor=#000000;align=left;" vertex="1" parent="WIyWlLk6GJQsqaUBKTNV-1">
          <mxGeometry x="745" y="-590.5" width="20" height="110" as="geometry" />
        </mxCell>
        <mxCell id="xhn0Lpm8mwDRlb0D4wU6-154" value="zuul集群：运营zuul集群，能力zuul集群&lt;br&gt;实现服务网关+统一鉴权+限流+防止重放攻击+负载均衡&lt;br&gt;技术栈：swagger" style="text;html=1;strokeColor=none;fillColor=none;align=center;verticalAlign=middle;whiteSpace=wrap;rounded=0;labelBackgroundColor=#ffffff;fontColor=#000000;" vertex="1" parent="WIyWlLk6GJQsqaUBKTNV-1">
          <mxGeometry x="762" y="-588.5" width="184" height="108" as="geometry" />
        </mxCell>
        <mxCell id="xhn0Lpm8mwDRlb0D4wU6-155" value="" style="shape=curlyBracket;whiteSpace=wrap;html=1;rounded=1;labelBackgroundColor=#ffffff;strokeColor=#000000;strokeWidth=2;fillColor=#000000;gradientColor=none;fontColor=#000000;align=left;flipH=1;" vertex="1" parent="WIyWlLk6GJQsqaUBKTNV-1">
          <mxGeometry x="944.5" y="-590.5" width="20" height="110" as="geometry" />
        </mxCell>
        <mxCell id="xhn0Lpm8mwDRlb0D4wU6-156" value="" style="shape=curlyBracket;whiteSpace=wrap;html=1;rounded=1;labelBackgroundColor=#ffffff;strokeColor=#000000;strokeWidth=2;fillColor=#000000;gradientColor=none;fontColor=#000000;align=left;" vertex="1" parent="WIyWlLk6GJQsqaUBKTNV-1">
          <mxGeometry x="981" y="-590.5" width="20" height="110" as="geometry" />
        </mxCell>
        <mxCell id="xhn0Lpm8mwDRlb0D4wU6-157" value="Ribbon+feign实现服务的调用和负载均衡&lt;br&gt;Hystrix实现服务熔断" style="text;html=1;strokeColor=none;fillColor=none;align=center;verticalAlign=middle;whiteSpace=wrap;rounded=0;labelBackgroundColor=#ffffff;fontColor=#000000;" vertex="1" parent="WIyWlLk6GJQsqaUBKTNV-1">
          <mxGeometry x="997" y="-590.5" width="117" height="108" as="geometry" />
        </mxCell>
        <mxCell id="xhn0Lpm8mwDRlb0D4wU6-158" value="" style="shape=curlyBracket;whiteSpace=wrap;html=1;rounded=1;labelBackgroundColor=#ffffff;strokeColor=#000000;strokeWidth=2;fillColor=#000000;gradientColor=none;fontColor=#000000;align=left;flipH=1;" vertex="1" parent="WIyWlLk6GJQsqaUBKTNV-1">
          <mxGeometry x="1114" y="-590.5" width="20" height="110" as="geometry" />
        </mxCell>
        <mxCell id="xhn0Lpm8mwDRlb0D4wU6-159" value="" style="shape=curlyBracket;whiteSpace=wrap;html=1;rounded=1;labelBackgroundColor=#ffffff;strokeColor=#000000;strokeWidth=2;fillColor=#000000;gradientColor=none;fontColor=#000000;align=left;" vertex="1" parent="WIyWlLk6GJQsqaUBKTNV-1">
          <mxGeometry x="1137.5" y="-590.5" width="20" height="110" as="geometry" />
        </mxCell>
        <mxCell id="xhn0Lpm8mwDRlb0D4wU6-160" value="服务发现和注册：zookeeper（CP），etcd（cp），eureka（AP），consul（CA）" style="text;html=1;strokeColor=none;fillColor=none;align=center;verticalAlign=middle;whiteSpace=wrap;rounded=0;labelBackgroundColor=#ffffff;fontColor=#000000;" vertex="1" parent="WIyWlLk6GJQsqaUBKTNV-1">
          <mxGeometry x="1155.5" y="-590.5" width="117" height="108" as="geometry" />
        </mxCell>
        <mxCell id="xhn0Lpm8mwDRlb0D4wU6-161" value="" style="shape=curlyBracket;whiteSpace=wrap;html=1;rounded=1;labelBackgroundColor=#ffffff;strokeColor=#000000;strokeWidth=2;fillColor=#000000;gradientColor=none;fontColor=#000000;align=left;flipH=1;" vertex="1" parent="WIyWlLk6GJQsqaUBKTNV-1">
          <mxGeometry x="1265.5" y="-590.5" width="20" height="110" as="geometry" />
        </mxCell>
        <mxCell id="xhn0Lpm8mwDRlb0D4wU6-162" value="" style="shape=curlyBracket;whiteSpace=wrap;html=1;rounded=1;labelBackgroundColor=#ffffff;strokeColor=#000000;strokeWidth=2;fillColor=#000000;gradientColor=none;fontColor=#000000;align=left;" vertex="1" parent="WIyWlLk6GJQsqaUBKTNV-1">
          <mxGeometry x="1287.5" y="-590.5" width="20" height="110" as="geometry" />
        </mxCell>
        <mxCell id="xhn0Lpm8mwDRlb0D4wU6-163" value="配置中心：Apollo，confd" style="text;html=1;strokeColor=none;fillColor=none;align=center;verticalAlign=middle;whiteSpace=wrap;rounded=0;labelBackgroundColor=#ffffff;fontColor=#000000;" vertex="1" parent="WIyWlLk6GJQsqaUBKTNV-1">
          <mxGeometry x="1304.5" y="-590.5" width="117" height="108" as="geometry" />
        </mxCell>
        <mxCell id="xhn0Lpm8mwDRlb0D4wU6-164" value="" style="shape=curlyBracket;whiteSpace=wrap;html=1;rounded=1;labelBackgroundColor=#ffffff;strokeColor=#000000;strokeWidth=2;fillColor=#000000;gradientColor=none;fontColor=#000000;align=left;flipH=1;" vertex="1" parent="WIyWlLk6GJQsqaUBKTNV-1">
          <mxGeometry x="1407.5" y="-590.5" width="20" height="110" as="geometry" />
        </mxCell>
        <mxCell id="xhn0Lpm8mwDRlb0D4wU6-165" value="" style="shape=curlyBracket;whiteSpace=wrap;html=1;rounded=1;labelBackgroundColor=#ffffff;strokeColor=#000000;strokeWidth=2;fillColor=#000000;gradientColor=none;fontColor=#000000;align=left;" vertex="1" parent="WIyWlLk6GJQsqaUBKTNV-1">
          <mxGeometry x="1431" y="-590.5" width="20" height="110" as="geometry" />
        </mxCell>
        <mxCell id="xhn0Lpm8mwDRlb0D4wU6-166" value="服务通信&lt;br&gt;PRC：GRPC，dubbo，thrift&lt;br&gt;REST：Ribbon+feign" style="text;html=1;strokeColor=none;fillColor=none;align=center;verticalAlign=middle;whiteSpace=wrap;rounded=0;labelBackgroundColor=#ffffff;fontColor=#000000;" vertex="1" parent="WIyWlLk6GJQsqaUBKTNV-1">
          <mxGeometry x="1444" y="-590.5" width="117" height="108" as="geometry" />
        </mxCell>
        <mxCell id="xhn0Lpm8mwDRlb0D4wU6-167" value="" style="shape=curlyBracket;whiteSpace=wrap;html=1;rounded=1;labelBackgroundColor=#ffffff;strokeColor=#000000;strokeWidth=2;fillColor=#000000;gradientColor=none;fontColor=#000000;align=left;flipH=1;" vertex="1" parent="WIyWlLk6GJQsqaUBKTNV-1">
          <mxGeometry x="1542" y="-590.5" width="20" height="110" as="geometry" />
        </mxCell>
        <mxCell id="xhn0Lpm8mwDRlb0D4wU6-168" value="" style="endArrow=none;html=1;strokeColor=#6B6B6B;opacity=80;" edge="1" parent="WIyWlLk6GJQsqaUBKTNV-1">
          <mxGeometry width="50" height="50" relative="1" as="geometry">
            <mxPoint x="506" y="-343" as="sourcePoint" />
            <mxPoint x="506" y="-1533" as="targetPoint" />
          </mxGeometry>
        </mxCell>
        <mxCell id="xhn0Lpm8mwDRlb0D4wU6-169" value="" style="endArrow=none;html=1;strokeColor=#6B6B6B;opacity=80;" edge="1" parent="WIyWlLk6GJQsqaUBKTNV-1">
          <mxGeometry width="50" height="50" relative="1" as="geometry">
            <mxPoint x="1715.9999999999995" y="-344" as="sourcePoint" />
            <mxPoint x="1715.9999999999995" y="-1534" as="targetPoint" />
          </mxGeometry>
        </mxCell>
        <mxCell id="xhn0Lpm8mwDRlb0D4wU6-170" value="" style="group" vertex="1" connectable="0" parent="WIyWlLk6GJQsqaUBKTNV-1">
          <mxGeometry x="94" y="-590.5" width="130" height="110" as="geometry" />
        </mxCell>
        <mxCell id="xhn0Lpm8mwDRlb0D4wU6-171" value="" style="shape=curlyBracket;whiteSpace=wrap;html=1;rounded=1;labelBackgroundColor=#ffffff;strokeColor=#000000;strokeWidth=2;fillColor=#000000;gradientColor=none;fontColor=#000000;align=left;" vertex="1" parent="xhn0Lpm8mwDRlb0D4wU6-170">
          <mxGeometry width="20" height="110" as="geometry" />
        </mxCell>
        <mxCell id="xhn0Lpm8mwDRlb0D4wU6-172" value="React技术栈&lt;br&gt;javascript，jsp，html，css，ajax，sse，ws&lt;br&gt;前后端分离&lt;br&gt;接口编程：graphQL" style="text;html=1;strokeColor=none;fillColor=none;align=center;verticalAlign=middle;whiteSpace=wrap;rounded=0;labelBackgroundColor=#ffffff;fontColor=#000000;" vertex="1" parent="xhn0Lpm8mwDRlb0D4wU6-170">
          <mxGeometry x="15" y="2" width="100" height="108" as="geometry" />
        </mxCell>
        <mxCell id="xhn0Lpm8mwDRlb0D4wU6-173" value="" style="shape=curlyBracket;whiteSpace=wrap;html=1;rounded=1;labelBackgroundColor=#ffffff;strokeColor=#000000;strokeWidth=2;fillColor=#000000;gradientColor=none;fontColor=#000000;align=left;flipH=1;" vertex="1" parent="xhn0Lpm8mwDRlb0D4wU6-170">
          <mxGeometry x="110" width="20" height="110" as="geometry" />
        </mxCell>
        <mxCell id="xhn0Lpm8mwDRlb0D4wU6-174" value="" style="shape=curlyBracket;whiteSpace=wrap;html=1;rounded=1;labelBackgroundColor=#ffffff;strokeColor=#000000;strokeWidth=2;fillColor=#000000;gradientColor=none;fontColor=#000000;align=left;" vertex="1" parent="WIyWlLk6GJQsqaUBKTNV-1">
          <mxGeometry x="1568" y="-590.5" width="20" height="110" as="geometry" />
        </mxCell>
        <mxCell id="xhn0Lpm8mwDRlb0D4wU6-175" value="监控平台：ELK或者graphite（存储）+ganfana（图形化展示）&lt;br&gt;告警平台：icinga" style="text;html=1;strokeColor=none;fillColor=none;align=center;verticalAlign=middle;whiteSpace=wrap;rounded=0;labelBackgroundColor=#ffffff;fontColor=#000000;" vertex="1" parent="WIyWlLk6GJQsqaUBKTNV-1">
          <mxGeometry x="1582" y="-590.5" width="117" height="108" as="geometry" />
        </mxCell>
        <mxCell id="xhn0Lpm8mwDRlb0D4wU6-176" value="" style="shape=curlyBracket;whiteSpace=wrap;html=1;rounded=1;labelBackgroundColor=#ffffff;strokeColor=#000000;strokeWidth=2;fillColor=#000000;gradientColor=none;fontColor=#000000;align=left;flipH=1;" vertex="1" parent="WIyWlLk6GJQsqaUBKTNV-1">
          <mxGeometry x="1694" y="-590.5" width="20" height="110" as="geometry" />
        </mxCell>
        <mxCell id="xhn0Lpm8mwDRlb0D4wU6-177" value="" style="shape=curlyBracket;whiteSpace=wrap;html=1;rounded=1;labelBackgroundColor=#ffffff;strokeColor=#000000;strokeWidth=2;fillColor=#000000;gradientColor=none;fontColor=#000000;align=left;" vertex="1" parent="WIyWlLk6GJQsqaUBKTNV-1">
          <mxGeometry x="1886" y="-590.5" width="20" height="110" as="geometry" />
        </mxCell>
        <mxCell id="xhn0Lpm8mwDRlb0D4wU6-178" value="数据库未来发展读写分离，分库分表，实时同步。&lt;br&gt;监控工具：cloud dba" style="text;html=1;strokeColor=none;fillColor=none;align=center;verticalAlign=middle;whiteSpace=wrap;rounded=0;labelBackgroundColor=#ffffff;fontColor=#000000;" vertex="1" parent="WIyWlLk6GJQsqaUBKTNV-1">
          <mxGeometry x="1900" y="-590.5" width="136" height="108" as="geometry" />
        </mxCell>
        <mxCell id="xhn0Lpm8mwDRlb0D4wU6-179" value="" style="shape=curlyBracket;whiteSpace=wrap;html=1;rounded=1;labelBackgroundColor=#ffffff;strokeColor=#000000;strokeWidth=2;fillColor=#000000;gradientColor=none;fontColor=#000000;align=left;flipH=1;" vertex="1" parent="WIyWlLk6GJQsqaUBKTNV-1">
          <mxGeometry x="2026" y="-590.5" width="20" height="110" as="geometry" />
        </mxCell>
        <mxCell id="xhn0Lpm8mwDRlb0D4wU6-180" value="" style="shape=curlyBracket;whiteSpace=wrap;html=1;rounded=1;labelBackgroundColor=#ffffff;strokeColor=#000000;strokeWidth=2;fillColor=#000000;gradientColor=none;fontColor=#000000;align=left;" vertex="1" parent="WIyWlLk6GJQsqaUBKTNV-1">
          <mxGeometry x="1734" y="-590.5" width="20" height="110" as="geometry" />
        </mxCell>
        <mxCell id="xhn0Lpm8mwDRlb0D4wU6-181" value="消息总线：rabbit，kafka&lt;br&gt;缓存：redis，memcached" style="text;html=1;strokeColor=none;fillColor=none;align=center;verticalAlign=middle;whiteSpace=wrap;rounded=0;labelBackgroundColor=#ffffff;fontColor=#000000;" vertex="1" parent="WIyWlLk6GJQsqaUBKTNV-1">
          <mxGeometry x="1748" y="-590.5" width="117" height="108" as="geometry" />
        </mxCell>
        <mxCell id="xhn0Lpm8mwDRlb0D4wU6-182" value="" style="shape=curlyBracket;whiteSpace=wrap;html=1;rounded=1;labelBackgroundColor=#ffffff;strokeColor=#000000;strokeWidth=2;fillColor=#000000;gradientColor=none;fontColor=#000000;align=left;flipH=1;" vertex="1" parent="WIyWlLk6GJQsqaUBKTNV-1">
          <mxGeometry x="1860" y="-590.5" width="20" height="110" as="geometry" />
        </mxCell>
        <mxCell id="xhn0Lpm8mwDRlb0D4wU6-183" value="Docker+kubernetes" style="rounded=0;whiteSpace=wrap;html=1;labelBackgroundColor=none;strokeColor=#000000;strokeWidth=2;fillColor=#FF99CC;gradientColor=none;fontColor=#000000;align=center;fontSize=18;" vertex="1" parent="WIyWlLk6GJQsqaUBKTNV-1">
          <mxGeometry x="996" y="-462.5" width="700" height="60" as="geometry" />
        </mxCell>
        <mxCell id="xhn0Lpm8mwDRlb0D4wU6-184" value="服务层" style="rounded=0;whiteSpace=wrap;html=1;labelBackgroundColor=none;strokeColor=#000000;strokeWidth=2;fillColor=#FF9933;gradientColor=none;fontColor=#000000;align=center;fontSize=18;" vertex="1" parent="WIyWlLk6GJQsqaUBKTNV-1">
          <mxGeometry x="1212" y="-385.5" width="100" height="70" as="geometry" />
        </mxCell>
        <mxCell id="xhn0Lpm8mwDRlb0D4wU6-185" value="Docker+kubernetes" style="rounded=0;whiteSpace=wrap;html=1;labelBackgroundColor=none;strokeColor=#000000;strokeWidth=2;fillColor=#FF99CC;gradientColor=none;fontColor=#000000;align=center;fontSize=18;" vertex="1" parent="WIyWlLk6GJQsqaUBKTNV-1">
          <mxGeometry x="1746" y="-462.5" width="300" height="60" as="geometry" />
        </mxCell>
        <mxCell id="xhn0Lpm8mwDRlb0D4wU6-186" value="存储层" style="rounded=0;whiteSpace=wrap;html=1;labelBackgroundColor=none;strokeColor=#000000;strokeWidth=2;fillColor=#FF9933;gradientColor=none;fontColor=#000000;align=center;fontSize=18;" vertex="1" parent="WIyWlLk6GJQsqaUBKTNV-1">
          <mxGeometry x="1796" y="-385.5" width="100" height="70" as="geometry" />
        </mxCell>
        <mxCell id="xhn0Lpm8mwDRlb0D4wU6-187" value="" style="shape=doubleArrow;direction=south;whiteSpace=wrap;html=1;labelBackgroundColor=none;strokeColor=#000000;strokeWidth=2;fillColor=#FFFFFF;gradientColor=none;fontSize=12;fontColor=#000000;align=left;" vertex="1" parent="WIyWlLk6GJQsqaUBKTNV-1">
          <mxGeometry x="1245" y="-315.5" width="31" height="55" as="geometry" />
        </mxCell>
        <mxCell id="xhn0Lpm8mwDRlb0D4wU6-188" value="" style="group" vertex="1" connectable="0" parent="WIyWlLk6GJQsqaUBKTNV-1">
          <mxGeometry x="989.5" y="-765" width="17" height="94.5" as="geometry" />
        </mxCell>
        <mxCell id="xhn0Lpm8mwDRlb0D4wU6-189" value="" style="line;strokeWidth=2;direction=south;html=1;labelBackgroundColor=none;fillColor=#FFFFFF;gradientColor=none;fontSize=12;fontColor=#000000;align=left;" vertex="1" parent="xhn0Lpm8mwDRlb0D4wU6-188">
          <mxGeometry y="13" width="10" height="69" as="geometry" />
        </mxCell>
        <mxCell id="xhn0Lpm8mwDRlb0D4wU6-190" value="" style="line;strokeWidth=2;direction=south;html=1;labelBackgroundColor=none;fillColor=#FFFFFF;gradientColor=none;fontSize=12;fontColor=#000000;align=left;rotation=-130;" vertex="1" parent="xhn0Lpm8mwDRlb0D4wU6-188">
          <mxGeometry x="6" width="10" height="17" as="geometry" />
        </mxCell>
        <mxCell id="xhn0Lpm8mwDRlb0D4wU6-191" value="" style="line;strokeWidth=2;direction=south;html=1;labelBackgroundColor=none;fillColor=#FFFFFF;gradientColor=none;fontSize=12;fontColor=#000000;align=left;rotation=305;flipV=0;flipH=1;" vertex="1" parent="xhn0Lpm8mwDRlb0D4wU6-188">
          <mxGeometry x="7" y="77.5" width="10" height="17" as="geometry" />
        </mxCell>
        <mxCell id="xhn0Lpm8mwDRlb0D4wU6-192" value="服务分成聚合服务和基础服务" style="text;strokeColor=none;fillColor=none;html=1;fontSize=12;fontStyle=0;verticalAlign=middle;align=center;labelBackgroundColor=none;" vertex="1" parent="WIyWlLk6GJQsqaUBKTNV-1">
          <mxGeometry x="1027.5" y="-737" width="168" height="34" as="geometry" />
        </mxCell>
        <mxCell id="xhn0Lpm8mwDRlb0D4wU6-193" value="" style="group;flipH=1;rotation=-180;" vertex="1" connectable="0" parent="WIyWlLk6GJQsqaUBKTNV-1">
          <mxGeometry x="1210" y="-765" width="17" height="94.5" as="geometry" />
        </mxCell>
        <mxCell id="xhn0Lpm8mwDRlb0D4wU6-194" value="" style="line;strokeWidth=2;direction=south;html=1;labelBackgroundColor=none;fillColor=#FFFFFF;gradientColor=none;fontSize=12;fontColor=#000000;align=left;rotation=-180;" vertex="1" parent="xhn0Lpm8mwDRlb0D4wU6-193">
          <mxGeometry x="7" y="13" width="10" height="69" as="geometry" />
        </mxCell>
        <mxCell id="xhn0Lpm8mwDRlb0D4wU6-195" value="" style="line;strokeWidth=2;direction=south;html=1;labelBackgroundColor=none;fillColor=#FFFFFF;gradientColor=none;fontSize=12;fontColor=#000000;align=left;rotation=-310;" vertex="1" parent="xhn0Lpm8mwDRlb0D4wU6-193">
          <mxGeometry x="1" y="78" width="10" height="17" as="geometry" />
        </mxCell>
        <mxCell id="xhn0Lpm8mwDRlb0D4wU6-196" value="" style="line;strokeWidth=2;direction=south;html=1;labelBackgroundColor=none;fillColor=#FFFFFF;gradientColor=none;fontSize=12;fontColor=#000000;align=left;rotation=125;flipV=0;flipH=1;" vertex="1" parent="xhn0Lpm8mwDRlb0D4wU6-193">
          <mxGeometry width="10" height="17" as="geometry" />
        </mxCell>
        <mxCell id="xhn0Lpm8mwDRlb0D4wU6-197" value="代码自动化" style="shadow=0;dashed=0;html=1;labelPosition=center;verticalLabelPosition=bottom;verticalAlign=top;align=center;shape=mxgraph.azure.code_file;fillColor=#00BEF2;pointerEvents=1;strokeColor=none;aspect=fixed;" vertex="1" parent="WIyWlLk6GJQsqaUBKTNV-1">
          <mxGeometry x="1069" y="-236" width="72" height="75" as="geometry" />
        </mxCell>
        <mxCell id="xhn0Lpm8mwDRlb0D4wU6-198" value="测试自动化" style="pointerEvents=1;shadow=0;dashed=0;html=1;strokeColor=none;labelPosition=center;verticalLabelPosition=bottom;verticalAlign=top;align=center;shape=mxgraph.azure.health_monitoring;fillColor=#00BEF2;fontColor=#000000;aspect=fixed;" vertex="1" parent="WIyWlLk6GJQsqaUBKTNV-1">
          <mxGeometry x="1275" y="-228" width="80" height="67.2" as="geometry" />
        </mxCell>
        <mxCell id="xhn0Lpm8mwDRlb0D4wU6-199" value="集成自动化" style="verticalLabelPosition=bottom;html=1;verticalAlign=top;align=center;strokeColor=none;fillColor=#00BEF2;shape=mxgraph.azure.git_repository;shadow=0;dashed=0;fontFamily=Helvetica;fontSize=12;fontColor=#000000;aspect=fixed;" vertex="1" parent="WIyWlLk6GJQsqaUBKTNV-1">
          <mxGeometry x="1173" y="-236" width="75" height="75" as="geometry" />
        </mxCell>
        <mxCell id="xhn0Lpm8mwDRlb0D4wU6-200" value="部署自动化" style="verticalLabelPosition=bottom;html=1;verticalAlign=top;align=center;strokeColor=none;fillColor=#00BEF2;shape=mxgraph.azure.server_rack;dashed=1;fontColor=#000000;aspect=fixed;" vertex="1" parent="WIyWlLk6GJQsqaUBKTNV-1">
          <mxGeometry x="1382.5" y="-236" width="75" height="75" as="geometry" />
        </mxCell>
        <mxCell id="xhn0Lpm8mwDRlb0D4wU6-201" value="" style="shape=doubleArrow;direction=south;whiteSpace=wrap;html=1;labelBackgroundColor=none;strokeColor=#000000;strokeWidth=2;fillColor=#FFFFFF;gradientColor=none;fontSize=12;fontColor=#000000;align=left;rotation=90;" vertex="1" parent="WIyWlLk6GJQsqaUBKTNV-1">
          <mxGeometry x="1508" y="-232.5" width="34" height="72" as="geometry" />
        </mxCell>
        <mxCell id="xhn0Lpm8mwDRlb0D4wU6-202" value="" style="group" vertex="1" connectable="0" parent="WIyWlLk6GJQsqaUBKTNV-1">
          <mxGeometry x="1140" y="-110.5" width="189" height="110" as="geometry" />
        </mxCell>
        <mxCell id="xhn0Lpm8mwDRlb0D4wU6-203" value="" style="shape=curlyBracket;whiteSpace=wrap;html=1;rounded=1;labelBackgroundColor=#ffffff;strokeColor=#000000;strokeWidth=2;fillColor=#000000;gradientColor=none;fontColor=#000000;align=left;" vertex="1" parent="xhn0Lpm8mwDRlb0D4wU6-202">
          <mxGeometry width="20" height="110" as="geometry" />
        </mxCell>
        <mxCell id="xhn0Lpm8mwDRlb0D4wU6-204" value="辅助工具：jacoco，badsql，autotag" style="text;html=1;strokeColor=none;fillColor=none;align=center;verticalAlign=middle;whiteSpace=wrap;rounded=0;labelBackgroundColor=#ffffff;fontColor=#000000;" vertex="1" parent="xhn0Lpm8mwDRlb0D4wU6-202">
          <mxGeometry x="17" width="159" height="108" as="geometry" />
        </mxCell>
        <mxCell id="xhn0Lpm8mwDRlb0D4wU6-205" value="" style="shape=curlyBracket;whiteSpace=wrap;html=1;rounded=1;labelBackgroundColor=#ffffff;strokeColor=#000000;strokeWidth=2;fillColor=#000000;gradientColor=none;fontColor=#000000;align=left;flipH=1;" vertex="1" parent="xhn0Lpm8mwDRlb0D4wU6-202">
          <mxGeometry x="169" width="20" height="110" as="geometry" />
        </mxCell>
        <mxCell id="xhn0Lpm8mwDRlb0D4wU6-206" value="" style="shape=doubleArrow;direction=south;whiteSpace=wrap;html=1;labelBackgroundColor=none;strokeColor=#000000;strokeWidth=2;fillColor=#FFFFFF;gradientColor=none;fontSize=12;fontColor=#000000;align=left;rotation=90;" vertex="1" parent="WIyWlLk6GJQsqaUBKTNV-1">
          <mxGeometry x="1660" y="-232.5" width="34" height="72" as="geometry" />
        </mxCell>
        <mxCell id="xhn0Lpm8mwDRlb0D4wU6-207" value="CI/CD环境" style="rounded=1;whiteSpace=wrap;html=1;dashed=1;strokeColor=#FF8000;fillColor=none;strokeWidth=2;fontStyle=1;verticalAlign=top;arcSize=19;align=center;" vertex="1" parent="WIyWlLk6GJQsqaUBKTNV-1">
          <mxGeometry x="1716" y="-270.5" width="240" height="200" as="geometry" />
        </mxCell>
        <mxCell id="xhn0Lpm8mwDRlb0D4wU6-208" value="" style="shape=doubleArrow;direction=south;whiteSpace=wrap;html=1;labelBackgroundColor=none;strokeColor=#000000;strokeWidth=2;fillColor=#FFFFFF;gradientColor=none;fontSize=12;fontColor=#000000;align=left;rotation=90;" vertex="1" parent="WIyWlLk6GJQsqaUBKTNV-1">
          <mxGeometry x="1978" y="-206.5" width="34" height="72" as="geometry" />
        </mxCell>
        <mxCell id="xhn0Lpm8mwDRlb0D4wU6-209" value="镜像仓库" style="rounded=1;whiteSpace=wrap;html=1;dashed=1;strokeColor=#FF8000;fillColor=none;strokeWidth=2;fontStyle=1;verticalAlign=top;arcSize=19;align=center;" vertex="1" parent="WIyWlLk6GJQsqaUBKTNV-1">
          <mxGeometry x="2034" y="-259.5" width="240" height="159" as="geometry" />
        </mxCell>
        <mxCell id="xhn0Lpm8mwDRlb0D4wU6-210" value="harbor存储镜像" style="verticalLabelPosition=bottom;html=1;verticalAlign=top;align=center;strokeColor=none;fillColor=#00BEF2;shape=mxgraph.azure.git_repository;shadow=0;dashed=0;fontFamily=Helvetica;fontSize=12;fontColor=#000000;aspect=fixed;" vertex="1" parent="WIyWlLk6GJQsqaUBKTNV-1">
          <mxGeometry x="2054" y="-212" width="75" height="75" as="geometry" />
        </mxCell>
        <mxCell id="xhn0Lpm8mwDRlb0D4wU6-211" value="ceph存储war包" style="verticalLabelPosition=bottom;html=1;verticalAlign=top;align=center;strokeColor=none;fillColor=#00BEF2;shape=mxgraph.azure.git_repository;shadow=0;dashed=0;fontFamily=Helvetica;fontSize=12;fontColor=#000000;aspect=fixed;" vertex="1" parent="WIyWlLk6GJQsqaUBKTNV-1">
          <mxGeometry x="2183" y="-212" width="75" height="75" as="geometry" />
        </mxCell>
        <mxCell id="xhn0Lpm8mwDRlb0D4wU6-212" value="maven" style="html=1;fillColor=#00BEF2;strokeColor=none;verticalAlign=top;labelPosition=center;verticalLabelPosition=bottom;align=center;spacingTop=-6;fontSize=12;fontStyle=0;fontColor=#000000;shape=mxgraph.gcp2.hexIcon;prIcon=placeholder;dashed=1;aspect=fixed;" vertex="1" parent="WIyWlLk6GJQsqaUBKTNV-1">
          <mxGeometry x="1752.6666666666667" y="-228" width="70" height="62.05" as="geometry" />
        </mxCell>
        <mxCell id="xhn0Lpm8mwDRlb0D4wU6-213" value="jenkins" style="html=1;fillColor=#00BEF2;strokeColor=none;verticalAlign=top;labelPosition=center;verticalLabelPosition=bottom;align=center;spacingTop=-6;fontSize=12;fontStyle=0;fontColor=#000000;shape=mxgraph.gcp2.hexIcon;prIcon=placeholder;dashed=1;aspect=fixed;" vertex="1" parent="WIyWlLk6GJQsqaUBKTNV-1">
          <mxGeometry x="1849.1666666666667" y="-228" width="70" height="62.05" as="geometry" />
        </mxCell>
        <mxCell id="xhn0Lpm8mwDRlb0D4wU6-214" value="docker-build" style="html=1;fillColor=#00BEF2;strokeColor=none;verticalAlign=top;labelPosition=center;verticalLabelPosition=bottom;align=center;spacingTop=-6;fontSize=12;fontStyle=0;fontColor=#000000;shape=mxgraph.gcp2.hexIcon;prIcon=placeholder;dashed=1;aspect=fixed;" vertex="1" parent="WIyWlLk6GJQsqaUBKTNV-1">
          <mxGeometry x="1752.6666666666667" y="-155.5" width="70" height="62.05" as="geometry" />
        </mxCell>
        <mxCell id="xhn0Lpm8mwDRlb0D4wU6-215" value="phabricator" style="html=1;fillColor=#00BEF2;strokeColor=none;verticalAlign=top;labelPosition=center;verticalLabelPosition=bottom;align=center;spacingTop=-6;fontSize=12;fontStyle=0;fontColor=#000000;shape=mxgraph.gcp2.hexIcon;prIcon=placeholder;dashed=1;aspect=fixed;" vertex="1" parent="WIyWlLk6GJQsqaUBKTNV-1">
          <mxGeometry x="1849.1666666666667" y="-155.5" width="70" height="62.05" as="geometry" />
        </mxCell>
        <mxCell id="xhn0Lpm8mwDRlb0D4wU6-216" value="基于springcloud的微服务架构和devops实践Java-SpringCloud微服务架构图" style="text;html=1;strokeColor=none;fillColor=none;align=center;verticalAlign=middle;whiteSpace=wrap;rounded=0;labelBackgroundColor=none;fontSize=16;fontColor=#000000;fontStyle=0" vertex="1" parent="WIyWlLk6GJQsqaUBKTNV-1">
          <mxGeometry x="104" y="-1622.5" width="559" height="19" as="geometry" />
        </mxCell>
        <mxCell id="xhn0Lpm8mwDRlb0D4wU6-217" value="数据源" style="text;html=1;strokeColor=none;fillColor=none;align=center;verticalAlign=middle;whiteSpace=wrap;rounded=0;fontSize=18;fontStyle=1" vertex="1" parent="WIyWlLk6GJQsqaUBKTNV-1">
          <mxGeometry x="210" y="250" width="80" height="20" as="geometry" />
        </mxCell>
        <mxCell id="xhn0Lpm8mwDRlb0D4wU6-218" value="数据采集" style="text;html=1;strokeColor=none;fillColor=none;align=center;verticalAlign=middle;whiteSpace=wrap;rounded=0;opacity=40;fontSize=18;fontStyle=1" vertex="1" parent="WIyWlLk6GJQsqaUBKTNV-1">
          <mxGeometry x="500" y="250" width="80" height="20" as="geometry" />
        </mxCell>
        <mxCell id="xhn0Lpm8mwDRlb0D4wU6-219" value="数据存储" style="text;html=1;strokeColor=none;fillColor=none;align=center;verticalAlign=middle;whiteSpace=wrap;rounded=0;opacity=40;fontSize=18;fontStyle=1" vertex="1" parent="WIyWlLk6GJQsqaUBKTNV-1">
          <mxGeometry x="910" y="250" width="80" height="20" as="geometry" />
        </mxCell>
        <mxCell id="xhn0Lpm8mwDRlb0D4wU6-220" value="数据管理" style="text;html=1;strokeColor=none;fillColor=none;align=center;verticalAlign=middle;whiteSpace=wrap;rounded=0;opacity=40;fontSize=18;fontStyle=1" vertex="1" parent="WIyWlLk6GJQsqaUBKTNV-1">
          <mxGeometry x="1240" y="250" width="80" height="20" as="geometry" />
        </mxCell>
        <mxCell id="xhn0Lpm8mwDRlb0D4wU6-221" value="数据服务" style="text;html=1;strokeColor=none;fillColor=none;align=center;verticalAlign=middle;whiteSpace=wrap;rounded=0;opacity=40;fontSize=18;fontStyle=1" vertex="1" parent="WIyWlLk6GJQsqaUBKTNV-1">
          <mxGeometry x="1500" y="250" width="80" height="20" as="geometry" />
        </mxCell>
        <mxCell id="xhn0Lpm8mwDRlb0D4wU6-222" value="统一建模与管理" style="text;html=1;strokeColor=none;fillColor=none;align=center;verticalAlign=middle;whiteSpace=wrap;rounded=0;opacity=40;fontSize=18;fontStyle=1;fontColor=#FF0000;" vertex="1" parent="WIyWlLk6GJQsqaUBKTNV-1">
          <mxGeometry x="1210" y="315" width="140" height="20" as="geometry" />
        </mxCell>
        <mxCell id="xhn0Lpm8mwDRlb0D4wU6-223" value="元数据" style="text;html=1;strokeColor=none;fillColor=none;align=center;verticalAlign=middle;whiteSpace=wrap;rounded=0;opacity=40;fontSize=18;fontStyle=1;fontColor=#FF0000;" vertex="1" parent="WIyWlLk6GJQsqaUBKTNV-1">
          <mxGeometry x="1210" y="870" width="140" height="20" as="geometry" />
        </mxCell>
        <mxCell id="xhn0Lpm8mwDRlb0D4wU6-224" value="数据集成" style="text;html=1;strokeColor=none;fillColor=none;align=center;verticalAlign=middle;whiteSpace=wrap;rounded=0;opacity=40;fontSize=18;fontStyle=1;fontColor=#FF0000;" vertex="1" parent="WIyWlLk6GJQsqaUBKTNV-1">
          <mxGeometry x="470" y="315" width="140" height="20" as="geometry" />
        </mxCell>
        <mxCell id="xhn0Lpm8mwDRlb0D4wU6-225" value="数据库" style="rounded=1;whiteSpace=wrap;html=1;fontSize=18;fontColor=#000000;fillColor=none;arcSize=4;dashed=1;strokeColor=#7627C4;strokeWidth=2;labelPosition=left;verticalLabelPosition=middle;align=center;verticalAlign=middle;" vertex="1" parent="WIyWlLk6GJQsqaUBKTNV-1">
          <mxGeometry x="175" y="330" width="155" height="105" as="geometry" />
        </mxCell>
        <mxCell id="xhn0Lpm8mwDRlb0D4wU6-226" value="&lt;blockquote style=&quot;margin: 0 0 0 40px ; border: none ; padding: 0px&quot;&gt;web数据&lt;/blockquote&gt;" style="rounded=1;whiteSpace=wrap;html=1;fontSize=18;fontColor=#000000;fillColor=none;arcSize=4;dashed=1;strokeColor=#CC6600;strokeWidth=2;labelPosition=left;verticalLabelPosition=middle;align=center;verticalAlign=middle;" vertex="1" parent="WIyWlLk6GJQsqaUBKTNV-1">
          <mxGeometry x="160" y="461" width="170" height="120" as="geometry" />
        </mxCell>
        <mxCell id="xhn0Lpm8mwDRlb0D4wU6-227" value="&lt;blockquote style=&quot;margin: 0 0 0 40px ; border: none ; padding: 0px&quot;&gt;文本数据&lt;/blockquote&gt;" style="rounded=1;whiteSpace=wrap;html=1;fontSize=18;fontColor=#000000;fillColor=none;arcSize=4;dashed=1;strokeColor=#0000CC;strokeWidth=2;labelPosition=left;verticalLabelPosition=middle;align=center;verticalAlign=middle;" vertex="1" parent="WIyWlLk6GJQsqaUBKTNV-1">
          <mxGeometry x="160" y="612" width="170" height="120" as="geometry" />
        </mxCell>
        <mxCell id="xhn0Lpm8mwDRlb0D4wU6-228" value="&lt;blockquote style=&quot;margin: 0 0 0 40px ; border: none ; padding: 0px&quot;&gt;标准数据&lt;/blockquote&gt;" style="rounded=1;whiteSpace=wrap;html=1;fontSize=18;fontColor=#000000;fillColor=none;arcSize=4;dashed=1;strokeColor=#CC0000;strokeWidth=2;labelPosition=left;verticalLabelPosition=middle;align=center;verticalAlign=middle;" vertex="1" parent="WIyWlLk6GJQsqaUBKTNV-1">
          <mxGeometry x="160" y="760" width="170" height="120" as="geometry" />
        </mxCell>
        <mxCell id="xhn0Lpm8mwDRlb0D4wU6-229" value="" style="endArrow=none;dashed=1;html=1;fontSize=18;fontColor=#FF0000;strokeWidth=3;" edge="1" parent="WIyWlLk6GJQsqaUBKTNV-1">
          <mxGeometry width="50" height="50" relative="1" as="geometry">
            <mxPoint x="350" y="920" as="sourcePoint" />
            <mxPoint x="350" y="280" as="targetPoint" />
          </mxGeometry>
        </mxCell>
        <mxCell id="xhn0Lpm8mwDRlb0D4wU6-230" value="" style="endArrow=none;dashed=1;html=1;fontSize=18;fontColor=#FF0000;strokeWidth=3;" edge="1" parent="WIyWlLk6GJQsqaUBKTNV-1">
          <mxGeometry width="50" height="50" relative="1" as="geometry">
            <mxPoint x="746" y="920" as="sourcePoint" />
            <mxPoint x="746" y="280" as="targetPoint" />
          </mxGeometry>
        </mxCell>
        <mxCell id="xhn0Lpm8mwDRlb0D4wU6-231" value="" style="endArrow=none;dashed=1;html=1;fontSize=18;fontColor=#FF0000;strokeWidth=3;" edge="1" parent="WIyWlLk6GJQsqaUBKTNV-1">
          <mxGeometry width="50" height="50" relative="1" as="geometry">
            <mxPoint x="1132" y="920" as="sourcePoint" />
            <mxPoint x="1132" y="280" as="targetPoint" />
          </mxGeometry>
        </mxCell>
        <mxCell id="xhn0Lpm8mwDRlb0D4wU6-232" value="" style="endArrow=none;dashed=1;html=1;fontSize=18;fontColor=#FF0000;strokeWidth=3;" edge="1" parent="WIyWlLk6GJQsqaUBKTNV-1">
          <mxGeometry width="50" height="50" relative="1" as="geometry">
            <mxPoint x="1428" y="920" as="sourcePoint" />
            <mxPoint x="1428" y="280" as="targetPoint" />
          </mxGeometry>
        </mxCell>
        <mxCell id="xhn0Lpm8mwDRlb0D4wU6-233" value="数据配置" style="rounded=1;whiteSpace=wrap;html=1;strokeColor=#000000;strokeWidth=2;fillColor=#ffffff;fontSize=18;fontColor=#000000;align=center;arcSize=9;" vertex="1" parent="WIyWlLk6GJQsqaUBKTNV-1">
          <mxGeometry x="365" y="377" width="115" height="44" as="geometry" />
        </mxCell>
        <mxCell id="xhn0Lpm8mwDRlb0D4wU6-234" value="数据管理" style="rounded=1;whiteSpace=wrap;html=1;strokeColor=#000000;strokeWidth=2;fillColor=#ffffff;fontSize=18;fontColor=#000000;align=center;arcSize=9;" vertex="1" parent="WIyWlLk6GJQsqaUBKTNV-1">
          <mxGeometry x="490" y="377" width="115" height="44" as="geometry" />
        </mxCell>
        <mxCell id="xhn0Lpm8mwDRlb0D4wU6-235" value="数据监控" style="rounded=1;whiteSpace=wrap;html=1;strokeColor=#000000;strokeWidth=2;fillColor=#ffffff;fontSize=18;fontColor=#000000;align=center;arcSize=9;" vertex="1" parent="WIyWlLk6GJQsqaUBKTNV-1">
          <mxGeometry x="615" y="377" width="115" height="44" as="geometry" />
        </mxCell>
        <mxCell id="xhn0Lpm8mwDRlb0D4wU6-236" value="可视化操作" style="rounded=1;whiteSpace=wrap;html=1;strokeColor=#000000;strokeWidth=2;fillColor=#ffffff;fontSize=18;fontColor=#000000;align=center;arcSize=9;" vertex="1" parent="WIyWlLk6GJQsqaUBKTNV-1">
          <mxGeometry x="365" y="432" width="365" height="44" as="geometry" />
        </mxCell>
        <mxCell id="xhn0Lpm8mwDRlb0D4wU6-237" value="资源" style="rounded=1;whiteSpace=wrap;html=1;strokeColor=#000000;strokeWidth=2;fillColor=#ffffff;fontSize=18;fontColor=#000000;align=center;arcSize=9;" vertex="1" parent="WIyWlLk6GJQsqaUBKTNV-1">
          <mxGeometry x="365" y="490" width="65" height="40" as="geometry" />
        </mxCell>
        <mxCell id="xhn0Lpm8mwDRlb0D4wU6-238" value="文件" style="rounded=1;whiteSpace=wrap;html=1;strokeColor=#000000;strokeWidth=2;fillColor=#ffffff;fontSize=18;fontColor=#000000;align=center;arcSize=9;" vertex="1" parent="WIyWlLk6GJQsqaUBKTNV-1">
          <mxGeometry x="440" y="490" width="65" height="40" as="geometry" />
        </mxCell>
        <mxCell id="xhn0Lpm8mwDRlb0D4wU6-239" value="图片" style="rounded=1;whiteSpace=wrap;html=1;strokeColor=#000000;strokeWidth=2;fillColor=#ffffff;fontSize=18;fontColor=#000000;align=center;arcSize=9;" vertex="1" parent="WIyWlLk6GJQsqaUBKTNV-1">
          <mxGeometry x="515" y="490" width="65" height="40" as="geometry" />
        </mxCell>
        <mxCell id="xhn0Lpm8mwDRlb0D4wU6-240" value="音频" style="rounded=1;whiteSpace=wrap;html=1;strokeColor=#000000;strokeWidth=2;fillColor=#ffffff;fontSize=18;fontColor=#000000;align=center;arcSize=9;" vertex="1" parent="WIyWlLk6GJQsqaUBKTNV-1">
          <mxGeometry x="590" y="490" width="65" height="40" as="geometry" />
        </mxCell>
        <mxCell id="xhn0Lpm8mwDRlb0D4wU6-241" value="视频" style="rounded=1;whiteSpace=wrap;html=1;strokeColor=#000000;strokeWidth=2;fillColor=#ffffff;fontSize=18;fontColor=#000000;align=center;arcSize=9;" vertex="1" parent="WIyWlLk6GJQsqaUBKTNV-1">
          <mxGeometry x="665" y="490" width="65" height="40" as="geometry" />
        </mxCell>
        <mxCell id="xhn0Lpm8mwDRlb0D4wU6-242" value="数据实时同步" style="text;html=1;strokeColor=none;fillColor=none;align=center;verticalAlign=middle;whiteSpace=wrap;rounded=0;opacity=40;fontSize=18;fontStyle=1;fontColor=#FF0000;" vertex="1" parent="WIyWlLk6GJQsqaUBKTNV-1">
          <mxGeometry x="477.5" y="592" width="140" height="20" as="geometry" />
        </mxCell>
        <mxCell id="xhn0Lpm8mwDRlb0D4wU6-243" value="数据采集" style="text;html=1;strokeColor=none;fillColor=none;align=center;verticalAlign=middle;whiteSpace=wrap;rounded=0;opacity=40;fontSize=18;fontStyle=1;fontColor=#FF0000;" vertex="1" parent="WIyWlLk6GJQsqaUBKTNV-1">
          <mxGeometry x="477.5" y="738" width="140" height="20" as="geometry" />
        </mxCell>
        <mxCell id="xhn0Lpm8mwDRlb0D4wU6-244" value="" style="endArrow=classic;html=1;strokeWidth=1;fontSize=18;fontColor=#000000;shape=flexArrow;fillColor=#3399FF;strokeColor=#808080;" edge="1" parent="WIyWlLk6GJQsqaUBKTNV-1">
          <mxGeometry width="50" height="50" relative="1" as="geometry">
            <mxPoint x="404.5" y="805" as="sourcePoint" />
            <mxPoint x="404.5" y="750" as="targetPoint" />
          </mxGeometry>
        </mxCell>
        <mxCell id="xhn0Lpm8mwDRlb0D4wU6-245" value="" style="endArrow=classic;html=1;strokeWidth=1;fontSize=18;fontColor=#000000;shape=flexArrow;fillColor=#3399FF;strokeColor=#808080;" edge="1" parent="WIyWlLk6GJQsqaUBKTNV-1">
          <mxGeometry width="50" height="50" relative="1" as="geometry">
            <mxPoint x="404.5" y="825" as="sourcePoint" />
            <mxPoint x="404.5" y="880" as="targetPoint" />
          </mxGeometry>
        </mxCell>
        <mxCell id="xhn0Lpm8mwDRlb0D4wU6-246" value="" style="endArrow=classic;html=1;strokeWidth=1;fontSize=18;fontColor=#000000;shape=flexArrow;fillColor=#3399FF;strokeColor=#808080;" edge="1" parent="WIyWlLk6GJQsqaUBKTNV-1">
          <mxGeometry width="50" height="50" relative="1" as="geometry">
            <mxPoint x="545.5" y="657" as="sourcePoint" />
            <mxPoint x="490.5" y="657" as="targetPoint" />
          </mxGeometry>
        </mxCell>
        <mxCell id="xhn0Lpm8mwDRlb0D4wU6-247" value="" style="endArrow=classic;html=1;strokeWidth=1;fontSize=18;fontColor=#000000;shape=flexArrow;fillColor=#B3B3B3;strokeColor=#FFFFFF;" edge="1" parent="WIyWlLk6GJQsqaUBKTNV-1">
          <mxGeometry width="50" height="50" relative="1" as="geometry">
            <mxPoint x="523" y="814.5" as="sourcePoint" />
            <mxPoint x="588" y="814.5" as="targetPoint" />
          </mxGeometry>
        </mxCell>
        <mxCell id="xhn0Lpm8mwDRlb0D4wU6-248" value="" style="endArrow=classic;html=1;strokeWidth=1;fontSize=18;fontColor=#000000;shape=flexArrow;fillColor=#3399FF;strokeColor=#808080;" edge="1" parent="WIyWlLk6GJQsqaUBKTNV-1">
          <mxGeometry width="50" height="50" relative="1" as="geometry">
            <mxPoint x="568.5" y="656" as="sourcePoint" />
            <mxPoint x="623.5" y="656" as="targetPoint" />
          </mxGeometry>
        </mxCell>
        <mxCell id="xhn0Lpm8mwDRlb0D4wU6-249" value="" style="endArrow=classic;html=1;strokeWidth=2;fontSize=18;fontColor=#000000;shape=flexArrow;fillColor=#B3B3B3;strokeColor=#FFFFFF;" edge="1" parent="WIyWlLk6GJQsqaUBKTNV-1">
          <mxGeometry width="50" height="50" relative="1" as="geometry">
            <mxPoint x="365" y="564" as="sourcePoint" />
            <mxPoint x="723" y="564" as="targetPoint" />
          </mxGeometry>
        </mxCell>
        <mxCell id="xhn0Lpm8mwDRlb0D4wU6-250" value="实时&lt;br&gt;&lt;br&gt;&lt;br&gt;增量" style="text;html=1;strokeColor=none;fillColor=none;align=center;verticalAlign=middle;whiteSpace=wrap;rounded=0;opacity=40;fontSize=18;fontStyle=0;fontColor=#000000;" vertex="1" parent="WIyWlLk6GJQsqaUBKTNV-1">
          <mxGeometry x="540" y="614" width="40" height="86" as="geometry" />
        </mxCell>
        <mxCell id="xhn0Lpm8mwDRlb0D4wU6-251" value="" style="rounded=1;whiteSpace=wrap;html=1;strokeColor=#808080;strokeWidth=2;fillColor=#ffffff;fontSize=18;fontColor=#757575;align=center;arcSize=2;" vertex="1" parent="WIyWlLk6GJQsqaUBKTNV-1">
          <mxGeometry x="766" y="610" width="344" height="270" as="geometry" />
        </mxCell>
        <mxCell id="xhn0Lpm8mwDRlb0D4wU6-252" value="海量结构化数据分析" style="text;html=1;strokeColor=none;fillColor=none;align=center;verticalAlign=middle;whiteSpace=wrap;rounded=0;opacity=40;fontSize=18;fontStyle=1" vertex="1" parent="WIyWlLk6GJQsqaUBKTNV-1">
          <mxGeometry x="853" y="520" width="170" height="20" as="geometry" />
        </mxCell>
        <mxCell id="xhn0Lpm8mwDRlb0D4wU6-253" value="" style="endArrow=classic;html=1;strokeWidth=2;fontSize=18;fontColor=#000000;shape=flexArrow;fillColor=#FFFFFF;strokeColor=#424242;width=13.6;endSize=4.0520000000000005;" edge="1" parent="WIyWlLk6GJQsqaUBKTNV-1">
          <mxGeometry width="50" height="50" relative="1" as="geometry">
            <mxPoint x="1274" y="730" as="sourcePoint" />
            <mxPoint x="1274" y="697" as="targetPoint" />
          </mxGeometry>
        </mxCell>
        <mxCell id="xhn0Lpm8mwDRlb0D4wU6-254" value="浏览" style="aspect=fixed;perimeter=ellipsePerimeter;html=1;align=right;shadow=0;dashed=0;fontColor=#000000;labelBackgroundColor=none;fontSize=18;spacingTop=3;image;image=img/lib/ibm/infrastructure/monitoring.svg;strokeColor=#808080;strokeWidth=2;fillColor=#ffffff;labelPosition=right;verticalLabelPosition=middle;verticalAlign=middle;fontStyle=1" vertex="1" parent="WIyWlLk6GJQsqaUBKTNV-1">
          <mxGeometry x="1470" y="317" width="60" height="60" as="geometry" />
        </mxCell>
        <mxCell id="xhn0Lpm8mwDRlb0D4wU6-255" value="分析" style="aspect=fixed;perimeter=ellipsePerimeter;html=1;align=right;shadow=0;dashed=0;fontColor=#000000;labelBackgroundColor=none;fontSize=18;spacingTop=3;image;image=img/lib/ibm/management/monitoring_metrics.svg;fontFamily=Helvetica;strokeColor=#808080;strokeWidth=2;fillColor=#ffffff;labelPosition=right;verticalLabelPosition=middle;verticalAlign=middle;fontStyle=1" vertex="1" parent="WIyWlLk6GJQsqaUBKTNV-1">
          <mxGeometry x="1470" y="615" width="60" height="60" as="geometry" />
        </mxCell>
        <mxCell id="xhn0Lpm8mwDRlb0D4wU6-256" value="&lt;font color=&quot;#000000&quot;&gt;互动&lt;/font&gt;" style="aspect=fixed;perimeter=ellipsePerimeter;html=1;align=right;shadow=0;dashed=0;fontColor=#000000;labelBackgroundColor=none;fontSize=18;spacingTop=3;image;image=img/lib/ibm/infrastructure/peer_services.svg;fontFamily=Helvetica;strokeColor=#808080;strokeWidth=2;fillColor=#ffffff;labelPosition=right;verticalLabelPosition=middle;verticalAlign=middle;fontStyle=1" vertex="1" parent="WIyWlLk6GJQsqaUBKTNV-1">
          <mxGeometry x="1470" y="714" width="60" height="60" as="geometry" />
        </mxCell>
        <mxCell id="xhn0Lpm8mwDRlb0D4wU6-257" value="发布" style="aspect=fixed;perimeter=ellipsePerimeter;html=1;align=right;shadow=0;dashed=0;fontColor=#000000;labelBackgroundColor=none;fontSize=18;spacingTop=3;image;image=img/lib/ibm/social/communities.svg;strokeColor=#808080;strokeWidth=2;fillColor=#ffffff;labelPosition=right;verticalLabelPosition=middle;verticalAlign=middle;fontStyle=1" vertex="1" parent="WIyWlLk6GJQsqaUBKTNV-1">
          <mxGeometry x="1470" y="813" width="60" height="60" as="geometry" />
        </mxCell>
        <mxCell id="xhn0Lpm8mwDRlb0D4wU6-258" value="检索" style="aspect=fixed;perimeter=ellipsePerimeter;html=1;align=right;shadow=0;dashed=0;fontColor=#000000;labelBackgroundColor=none;fontSize=18;spacingTop=3;image;image=img/lib/ibm/miscellaneous/retrieve_rank.svg;strokeColor=#808080;strokeWidth=2;labelPosition=right;verticalLabelPosition=middle;verticalAlign=middle;fontStyle=1" vertex="1" parent="WIyWlLk6GJQsqaUBKTNV-1">
          <mxGeometry x="1470" y="416" width="60" height="60" as="geometry" />
        </mxCell>
        <mxCell id="xhn0Lpm8mwDRlb0D4wU6-259" value="下载" style="aspect=fixed;perimeter=ellipsePerimeter;html=1;align=right;shadow=0;dashed=0;fontColor=#000000;labelBackgroundColor=none;fontSize=18;spacingTop=3;image;image=img/lib/ibm/applications/saas_applications.svg;strokeColor=#808080;strokeWidth=2;labelPosition=right;verticalLabelPosition=middle;verticalAlign=middle;fontStyle=1" vertex="1" parent="WIyWlLk6GJQsqaUBKTNV-1">
          <mxGeometry x="1470" y="515" width="60" height="60" as="geometry" />
        </mxCell>
        <mxCell id="xhn0Lpm8mwDRlb0D4wU6-260" value="词表" style="pointerEvents=1;shadow=0;dashed=0;html=1;strokeColor=none;labelPosition=center;verticalLabelPosition=top;verticalAlign=top;align=center;shape=mxgraph.mscae.enterprise.document;fillColor=#7D7D7D;labelBackgroundColor=none;fontSize=18;fontColor=#000000;" vertex="1" parent="WIyWlLk6GJQsqaUBKTNV-1">
          <mxGeometry x="1340" y="410" width="40" height="40" as="geometry" />
        </mxCell>
        <mxCell id="xhn0Lpm8mwDRlb0D4wU6-261" value="调度" style="pointerEvents=1;shadow=0;dashed=0;html=1;strokeColor=none;labelPosition=center;verticalLabelPosition=top;verticalAlign=top;align=center;shape=mxgraph.mscae.general_symbols.clock_time;fillColor=#0078D7;labelBackgroundColor=none;fontSize=18;fontColor=#000000;" vertex="1" parent="WIyWlLk6GJQsqaUBKTNV-1">
          <mxGeometry x="1260" y="410" width="40" height="40" as="geometry" />
        </mxCell>
        <mxCell id="xhn0Lpm8mwDRlb0D4wU6-262" value="元数据&lt;br&gt;仓库" style="html=1;verticalLabelPosition=bottom;align=center;labelBackgroundColor=none;verticalAlign=top;strokeWidth=2;strokeColor=#000000;fillColor=#ffffff;shadow=0;dashed=0;shape=mxgraph.ios7.icons.data;fontSize=18;fontColor=#000000;" vertex="1" parent="WIyWlLk6GJQsqaUBKTNV-1">
          <mxGeometry x="1170" y="470" width="40" height="40" as="geometry" />
        </mxCell>
        <mxCell id="xhn0Lpm8mwDRlb0D4wU6-263" value="日志" style="html=1;verticalAlign=top;verticalLabelPosition=bottom;labelBackgroundColor=none;imageAspect=0;aspect=fixed;shadow=0;dashed=0;fontFamily=Helvetica;fontSize=18;fontColor=#000000;align=center;strokeWidth=2;fillColor=none;strokeColor=none;" vertex="1" parent="WIyWlLk6GJQsqaUBKTNV-1">
          <mxGeometry x="1260" y="470" width="40" height="40" as="geometry" />
        </mxCell>
        <mxCell id="xhn0Lpm8mwDRlb0D4wU6-264" value="监控" style="pointerEvents=1;shadow=0;dashed=0;html=1;strokeColor=none;labelPosition=center;verticalLabelPosition=bottom;verticalAlign=top;align=center;shape=mxgraph.mscae.enterprise.performance_monitor;fillColor=#007373;labelBackgroundColor=none;fontSize=18;fontColor=#000000;" vertex="1" parent="WIyWlLk6GJQsqaUBKTNV-1">
          <mxGeometry x="1340" y="476" width="40" height="36" as="geometry" />
        </mxCell>
        <mxCell id="xhn0Lpm8mwDRlb0D4wU6-265" value="Data&lt;br&gt;Studio" style="html=1;verticalAlign=bottom;verticalLabelPosition=top;labelBackgroundColor=none;imageAspect=0;aspect=fixed;shadow=0;dashed=0;fontFamily=Helvetica;fontSize=18;fontColor=#000000;align=center;strokeWidth=2;labelPosition=center;fillColor=none;strokeColor=none;" vertex="1" parent="WIyWlLk6GJQsqaUBKTNV-1">
          <mxGeometry x="1170" y="410" width="40" height="40" as="geometry" />
        </mxCell>
        <mxCell id="xhn0Lpm8mwDRlb0D4wU6-266" value="挖掘模型" style="html=1;verticalAlign=top;verticalLabelPosition=bottom;labelBackgroundColor=none;imageAspect=0;aspect=fixed;shadow=0;dashed=0;fontFamily=Helvetica;fontSize=18;fontColor=#000000;align=center;strokeWidth=2;fillColor=none;strokeColor=none;" vertex="1" parent="WIyWlLk6GJQsqaUBKTNV-1">
          <mxGeometry x="1246.5" y="605" width="60" height="60" as="geometry" />
        </mxCell>
        <mxCell id="xhn0Lpm8mwDRlb0D4wU6-267" value="" style="outlineConnect=0;dashed=0;verticalLabelPosition=bottom;verticalAlign=top;align=center;html=1;shape=mxgraph.aws3.corporate_data_center;fillColor=#FFCC99;gradientColor=none;shadow=0;labelBackgroundColor=none;strokeColor=none;strokeWidth=2;fontSize=18;fontColor=#000000;" vertex="1" parent="WIyWlLk6GJQsqaUBKTNV-1">
          <mxGeometry x="1207" y="739" width="27" height="33" as="geometry" />
        </mxCell>
        <mxCell id="xhn0Lpm8mwDRlb0D4wU6-268" value="" style="outlineConnect=0;dashed=0;verticalLabelPosition=bottom;verticalAlign=top;align=center;html=1;shape=mxgraph.aws3.corporate_data_center;fillColor=#FFCC99;gradientColor=none;shadow=0;labelBackgroundColor=none;strokeColor=none;strokeWidth=2;fontSize=18;fontColor=#000000;" vertex="1" parent="WIyWlLk6GJQsqaUBKTNV-1">
          <mxGeometry x="1150" y="739" width="27" height="33" as="geometry" />
        </mxCell>
        <mxCell id="xhn0Lpm8mwDRlb0D4wU6-269" value="" style="outlineConnect=0;dashed=0;verticalLabelPosition=bottom;verticalAlign=top;align=center;html=1;shape=mxgraph.aws3.corporate_data_center;fillColor=#FFCC99;gradientColor=none;shadow=0;labelBackgroundColor=none;strokeColor=none;strokeWidth=2;fontSize=18;fontColor=#000000;" vertex="1" parent="WIyWlLk6GJQsqaUBKTNV-1">
          <mxGeometry x="1150" y="798" width="27" height="33" as="geometry" />
        </mxCell>
        <mxCell id="xhn0Lpm8mwDRlb0D4wU6-270" value="" style="outlineConnect=0;dashed=0;verticalLabelPosition=bottom;verticalAlign=top;align=center;html=1;shape=mxgraph.aws3.corporate_data_center;fillColor=#FFCC99;gradientColor=none;shadow=0;labelBackgroundColor=none;strokeColor=none;strokeWidth=2;fontSize=18;fontColor=#000000;" vertex="1" parent="WIyWlLk6GJQsqaUBKTNV-1">
          <mxGeometry x="1376" y="739" width="27" height="33" as="geometry" />
        </mxCell>
        <mxCell id="xhn0Lpm8mwDRlb0D4wU6-271" value="" style="outlineConnect=0;dashed=0;verticalLabelPosition=bottom;verticalAlign=top;align=center;html=1;shape=mxgraph.aws3.corporate_data_center;fillColor=#FFCC99;gradientColor=none;shadow=0;labelBackgroundColor=none;strokeColor=none;strokeWidth=2;fontSize=18;fontColor=#000000;" vertex="1" parent="WIyWlLk6GJQsqaUBKTNV-1">
          <mxGeometry x="1376" y="798" width="27" height="33" as="geometry" />
        </mxCell>
        <mxCell id="xhn0Lpm8mwDRlb0D4wU6-272" value="" style="outlineConnect=0;dashed=0;verticalLabelPosition=bottom;verticalAlign=top;align=center;html=1;shape=mxgraph.aws3.corporate_data_center;fillColor=#FFCC99;gradientColor=none;shadow=0;labelBackgroundColor=none;strokeColor=none;strokeWidth=2;fontSize=18;fontColor=#000000;" vertex="1" parent="WIyWlLk6GJQsqaUBKTNV-1">
          <mxGeometry x="1320" y="739" width="27" height="33" as="geometry" />
        </mxCell>
        <mxCell id="xhn0Lpm8mwDRlb0D4wU6-273" value="" style="outlineConnect=0;dashed=0;verticalLabelPosition=bottom;verticalAlign=top;align=center;html=1;shape=mxgraph.aws3.corporate_data_center;fillColor=#FFCC99;gradientColor=none;shadow=0;labelBackgroundColor=none;strokeColor=none;strokeWidth=2;fontSize=18;fontColor=#000000;" vertex="1" parent="WIyWlLk6GJQsqaUBKTNV-1">
          <mxGeometry x="1263" y="739" width="27" height="33" as="geometry" />
        </mxCell>
        <mxCell id="xhn0Lpm8mwDRlb0D4wU6-274" value="" style="outlineConnect=0;dashed=0;verticalLabelPosition=bottom;verticalAlign=top;align=center;html=1;shape=mxgraph.aws3.corporate_data_center;fillColor=#FFCC99;gradientColor=none;shadow=0;labelBackgroundColor=none;strokeColor=none;strokeWidth=2;fontSize=18;fontColor=#000000;" vertex="1" parent="WIyWlLk6GJQsqaUBKTNV-1">
          <mxGeometry x="1320" y="798" width="27" height="33" as="geometry" />
        </mxCell>
        <mxCell id="xhn0Lpm8mwDRlb0D4wU6-275" value="" style="outlineConnect=0;dashed=0;verticalLabelPosition=bottom;verticalAlign=top;align=center;html=1;shape=mxgraph.aws3.corporate_data_center;fillColor=#FFCC99;gradientColor=none;shadow=0;labelBackgroundColor=none;strokeColor=none;strokeWidth=2;fontSize=18;fontColor=#000000;" vertex="1" parent="WIyWlLk6GJQsqaUBKTNV-1">
          <mxGeometry x="1263" y="798" width="27" height="33" as="geometry" />
        </mxCell>
        <mxCell id="xhn0Lpm8mwDRlb0D4wU6-276" value="" style="outlineConnect=0;dashed=0;verticalLabelPosition=bottom;verticalAlign=top;align=center;html=1;shape=mxgraph.aws3.corporate_data_center;fillColor=#FFCC99;gradientColor=none;shadow=0;labelBackgroundColor=none;strokeColor=none;strokeWidth=2;fontSize=18;fontColor=#000000;" vertex="1" parent="WIyWlLk6GJQsqaUBKTNV-1">
          <mxGeometry x="1207" y="798" width="27" height="33" as="geometry" />
        </mxCell>
        <mxCell id="xhn0Lpm8mwDRlb0D4wU6-277" value="期刊" style="rounded=0;whiteSpace=wrap;html=1;shadow=0;dashed=0;labelBackgroundColor=none;strokeColor=none;strokeWidth=2;fillColor=#007FFF;fontSize=18;fontColor=#000000;align=center;fontStyle=1" vertex="1" parent="WIyWlLk6GJQsqaUBKTNV-1">
          <mxGeometry x="197" y="775.5" width="97" height="40" as="geometry" />
        </mxCell>
        <mxCell id="xhn0Lpm8mwDRlb0D4wU6-278" value="专利" style="rounded=0;whiteSpace=wrap;html=1;shadow=0;dashed=0;labelBackgroundColor=none;strokeColor=none;strokeWidth=2;fillColor=#007FFF;fontSize=18;fontColor=#000000;align=center;fontStyle=1" vertex="1" parent="WIyWlLk6GJQsqaUBKTNV-1">
          <mxGeometry x="197" y="824.5" width="97" height="40" as="geometry" />
        </mxCell>
        <mxCell id="xhn0Lpm8mwDRlb0D4wU6-279" value="" style="endArrow=classic;html=1;strokeWidth=2;fontSize=18;fontColor=#000000;shape=flexArrow;fillColor=#FF6666;strokeColor=#FFFFFF;" edge="1" parent="WIyWlLk6GJQsqaUBKTNV-1">
          <mxGeometry width="50" height="50" relative="1" as="geometry">
            <mxPoint x="758.9999999999998" y="564" as="sourcePoint" />
            <mxPoint x="1117" y="564" as="targetPoint" />
          </mxGeometry>
        </mxCell>
        <mxCell id="xhn0Lpm8mwDRlb0D4wU6-280" value="" style="rounded=1;whiteSpace=wrap;html=1;strokeColor=#808080;strokeWidth=2;fillColor=#ffffff;fontSize=18;fontColor=#757575;align=center;arcSize=2;" vertex="1" parent="WIyWlLk6GJQsqaUBKTNV-1">
          <mxGeometry x="805" y="383" width="266" height="113" as="geometry" />
        </mxCell>
        <mxCell id="xhn0Lpm8mwDRlb0D4wU6-281" value="加速引擎" style="text;html=1;strokeColor=none;fillColor=none;align=center;verticalAlign=middle;whiteSpace=wrap;rounded=0;opacity=40;fontSize=18;fontStyle=1;fontColor=#FF0000;" vertex="1" parent="WIyWlLk6GJQsqaUBKTNV-1">
          <mxGeometry x="880" y="315" width="140" height="20" as="geometry" />
        </mxCell>
        <mxCell id="xhn0Lpm8mwDRlb0D4wU6-282" value="" style="group;" vertex="1" connectable="0" parent="WIyWlLk6GJQsqaUBKTNV-1">
          <mxGeometry x="771" y="639" width="182" height="100" as="geometry" />
        </mxCell>
        <mxCell id="xhn0Lpm8mwDRlb0D4wU6-283" value="NoSQL" style="html=1;verticalAlign=bottom;verticalLabelPosition=top;labelBackgroundColor=#ffffff;imageAspect=0;aspect=fixed;shadow=0;dashed=0;strokeWidth=3;gradientColor=none;fontSize=18;fontColor=#000000;align=center;labelPosition=center;fillColor=none;strokeColor=none;" vertex="1" parent="xhn0Lpm8mwDRlb0D4wU6-282">
          <mxGeometry x="57" y="15" width="65" height="65" as="geometry" />
        </mxCell>
        <mxCell id="xhn0Lpm8mwDRlb0D4wU6-284" value="" style="aspect=fixed;html=1;points=[];align=center;image;fontSize=12;image=img/lib/mscae/Azure_Database_for_PostgreSQL_servers.svg;fillColor=none;" vertex="1" parent="xhn0Lpm8mwDRlb0D4wU6-282">
          <mxGeometry x="7" y="15" width="38" height="50" as="geometry" />
        </mxCell>
        <mxCell id="xhn0Lpm8mwDRlb0D4wU6-285" value="" style="aspect=fixed;html=1;points=[];align=center;image;fontSize=12;image=img/lib/mscae/Azure_Database_for_PostgreSQL_servers.svg;fillColor=none;" vertex="1" parent="xhn0Lpm8mwDRlb0D4wU6-282">
          <mxGeometry x="70.5" y="22.5" width="38" height="50" as="geometry" />
        </mxCell>
        <mxCell id="xhn0Lpm8mwDRlb0D4wU6-286" value="" style="aspect=fixed;html=1;points=[];align=center;image;fontSize=12;image=img/lib/mscae/Azure_Database_for_PostgreSQL_servers.svg;fillColor=none;" vertex="1" parent="xhn0Lpm8mwDRlb0D4wU6-282">
          <mxGeometry x="128" y="43" width="38" height="50" as="geometry" />
        </mxCell>
        <mxCell id="xhn0Lpm8mwDRlb0D4wU6-287" value="Hadoop" style="html=1;verticalAlign=top;verticalLabelPosition=bottom;labelBackgroundColor=none;imageAspect=0;aspect=fixed;shadow=0;dashed=0;strokeWidth=1;gradientColor=none;fontSize=18;fontColor=#000000;align=center;fillColor=none;strokeColor=none;" vertex="1" parent="WIyWlLk6GJQsqaUBKTNV-1">
          <mxGeometry x="824.5" y="773" width="75" height="75" as="geometry" />
        </mxCell>
        <mxCell id="xhn0Lpm8mwDRlb0D4wU6-288" style="rounded=0;orthogonalLoop=1;jettySize=auto;html=1;exitX=0.5;exitY=1;exitDx=0;exitDy=0;entryX=0.5;entryY=0;entryDx=0;entryDy=0;strokeColor=#424242;strokeWidth=2;fillColor=#FF6666;fontSize=18;fontColor=#000000;startArrow=block;startFill=1;endArrow=block;endFill=1;" edge="1" parent="WIyWlLk6GJQsqaUBKTNV-1">
          <mxGeometry relative="1" as="geometry">
            <mxPoint x="803.5" y="704" as="sourcePoint" />
            <mxPoint x="805" y="773" as="targetPoint" />
          </mxGeometry>
        </mxCell>
        <mxCell id="xhn0Lpm8mwDRlb0D4wU6-289" style="edgeStyle=none;rounded=0;orthogonalLoop=1;jettySize=auto;html=1;exitX=0.5;exitY=1;exitDx=0;exitDy=0;entryX=0.5;entryY=0;entryDx=0;entryDy=0;startArrow=block;startFill=1;endArrow=block;endFill=1;strokeColor=#424242;strokeWidth=2;fillColor=#FF6666;fontSize=18;fontColor=#000000;" edge="1" parent="WIyWlLk6GJQsqaUBKTNV-1" source="xhn0Lpm8mwDRlb0D4wU6-283" target="xhn0Lpm8mwDRlb0D4wU6-287">
          <mxGeometry relative="1" as="geometry" />
        </mxCell>
        <mxCell id="xhn0Lpm8mwDRlb0D4wU6-290" style="edgeStyle=none;rounded=0;orthogonalLoop=1;jettySize=auto;html=1;exitX=0.5;exitY=1;exitDx=0;exitDy=0;entryX=0.5;entryY=0;entryDx=0;entryDy=0;startArrow=block;startFill=1;endArrow=block;endFill=1;strokeColor=#424242;strokeWidth=2;fillColor=#FF6666;fontSize=18;fontColor=#000000;" edge="1" parent="WIyWlLk6GJQsqaUBKTNV-1">
          <mxGeometry relative="1" as="geometry">
            <mxPoint x="920.5" y="739" as="sourcePoint" />
            <mxPoint x="920.5" y="773" as="targetPoint" />
          </mxGeometry>
        </mxCell>
        <mxCell id="xhn0Lpm8mwDRlb0D4wU6-291" value="Cluster&amp;nbsp;Manager" style="shape=mxgraph.cisco.controllers_and_modules.3174_(desktop)_cluster_controller;html=1;dashed=0;fillColor=#036897;strokeColor=#ffffff;strokeWidth=2;verticalLabelPosition=bottom;verticalAlign=top;shadow=0;labelBackgroundColor=none;fontSize=18;fontColor=#000000;align=center;" vertex="1" parent="WIyWlLk6GJQsqaUBKTNV-1">
          <mxGeometry x="983" y="798" width="100" height="41" as="geometry" />
        </mxCell>
        <mxCell id="xhn0Lpm8mwDRlb0D4wU6-292" style="edgeStyle=none;rounded=0;orthogonalLoop=1;jettySize=auto;html=1;exitX=0.186;exitY=1.024;exitDx=0;exitDy=0;exitPerimeter=0;entryX=0.984;entryY=-0.002;entryDx=0;entryDy=0;entryPerimeter=0;startArrow=block;startFill=1;endArrow=block;endFill=1;strokeColor=#424242;strokeWidth=2;fillColor=#FF6666;fontSize=18;fontColor=#000000;" edge="1" parent="WIyWlLk6GJQsqaUBKTNV-1">
          <mxGeometry relative="1" as="geometry">
            <mxPoint x="1008.5079999999998" y="731.1600000000001" as="sourcePoint" />
            <mxPoint x="956.8000000000002" y="772.8499999999999" as="targetPoint" />
          </mxGeometry>
        </mxCell>
        <mxCell id="xhn0Lpm8mwDRlb0D4wU6-293" style="edgeStyle=none;rounded=0;orthogonalLoop=1;jettySize=auto;html=1;exitX=1;exitY=0.25;exitDx=0;exitDy=0;startArrow=block;startFill=1;endArrow=block;endFill=1;strokeColor=#424242;strokeWidth=2;fillColor=#FF6666;fontSize=18;fontColor=#000000;entryX=-0.013;entryY=0.578;entryDx=0;entryDy=0;entryPerimeter=0;" edge="1" parent="WIyWlLk6GJQsqaUBKTNV-1">
          <mxGeometry relative="1" as="geometry">
            <mxPoint x="953" y="690.25" as="sourcePoint" />
            <mxPoint x="992.9859999999999" y="691.02" as="targetPoint" />
          </mxGeometry>
        </mxCell>
        <mxCell id="xhn0Lpm8mwDRlb0D4wU6-294" value="push" style="text;html=1;strokeColor=none;fillColor=none;align=center;verticalAlign=middle;whiteSpace=wrap;rounded=0;shadow=0;dashed=0;labelBackgroundColor=none;fontSize=18;fontColor=#000000;" vertex="1" parent="WIyWlLk6GJQsqaUBKTNV-1">
          <mxGeometry x="433" y="758" width="40" height="20" as="geometry" />
        </mxCell>
        <mxCell id="xhn0Lpm8mwDRlb0D4wU6-295" value="pull" style="text;html=1;strokeColor=none;fillColor=none;align=center;verticalAlign=middle;whiteSpace=wrap;rounded=0;shadow=0;dashed=0;labelBackgroundColor=none;fontSize=18;fontColor=#000000;" vertex="1" parent="WIyWlLk6GJQsqaUBKTNV-1">
          <mxGeometry x="433" y="855" width="40" height="20" as="geometry" />
        </mxCell>
        <mxCell id="xhn0Lpm8mwDRlb0D4wU6-296" value="" style="aspect=fixed;html=1;points=[];align=center;image;fontSize=12;image=img/lib/mscae/Database_General.svg;" vertex="1" parent="WIyWlLk6GJQsqaUBKTNV-1">
          <mxGeometry x="217.97" y="350" width="49.4" height="65" as="geometry" />
        </mxCell>
        <mxCell id="xhn0Lpm8mwDRlb0D4wU6-297" value="" style="aspect=fixed;html=1;points=[];align=center;image;fontSize=12;image=img/lib/mscae/CustomDomain.svg;" vertex="1" parent="WIyWlLk6GJQsqaUBKTNV-1">
          <mxGeometry x="213.5" y="496" width="58.34" height="49" as="geometry" />
        </mxCell>
        <mxCell id="xhn0Lpm8mwDRlb0D4wU6-298" value="" style="aspect=fixed;html=1;points=[];align=center;image;fontSize=12;image=img/lib/mscae/App_Service_IPAddress.svg;" vertex="1" parent="WIyWlLk6GJQsqaUBKTNV-1">
          <mxGeometry x="215.88" y="649.5" width="53.57" height="45" as="geometry" />
        </mxCell>
        <mxCell id="xhn0Lpm8mwDRlb0D4wU6-299" value="" style="aspect=fixed;html=1;points=[];align=center;image;fontSize=12;image=img/lib/mscae/WebHosting.svg;" vertex="1" parent="WIyWlLk6GJQsqaUBKTNV-1">
          <mxGeometry x="602" y="760" width="102" height="102" as="geometry" />
        </mxCell>
        <mxCell id="xhn0Lpm8mwDRlb0D4wU6-300" value="" style="aspect=fixed;html=1;points=[];align=center;image;fontSize=12;image=img/lib/mscae/Elastic_Job_Agents.svg;" vertex="1" parent="WIyWlLk6GJQsqaUBKTNV-1">
          <mxGeometry x="402" y="625" width="60.48" height="72" as="geometry" />
        </mxCell>
        <mxCell id="xhn0Lpm8mwDRlb0D4wU6-301" value="" style="aspect=fixed;html=1;points=[];align=center;image;fontSize=12;image=img/lib/mscae/Elastic_Job_Agents.svg;" vertex="1" parent="WIyWlLk6GJQsqaUBKTNV-1">
          <mxGeometry x="644" y="627" width="58.8" height="70" as="geometry" />
        </mxCell>
        <mxCell id="xhn0Lpm8mwDRlb0D4wU6-302" value="" style="aspect=fixed;html=1;points=[];align=center;image;fontSize=12;image=img/lib/mscae/Virtual_Clusters.svg;fillColor=none;" vertex="1" parent="WIyWlLk6GJQsqaUBKTNV-1">
          <mxGeometry x="1252" y="608" width="54.17" height="52" as="geometry" />
        </mxCell>
        <mxCell id="xhn0Lpm8mwDRlb0D4wU6-303" value="" style="aspect=fixed;html=1;points=[];align=center;image;fontSize=12;image=img/lib/mscae/Data_Lake.svg;fillColor=none;" vertex="1" parent="WIyWlLk6GJQsqaUBKTNV-1">
          <mxGeometry x="824.5" y="408" width="38" height="50" as="geometry" />
        </mxCell>
        <mxCell id="xhn0Lpm8mwDRlb0D4wU6-304" value="" style="aspect=fixed;html=1;points=[];align=center;image;fontSize=12;image=img/lib/mscae/Data_Lake.svg;fillColor=none;" vertex="1" parent="WIyWlLk6GJQsqaUBKTNV-1">
          <mxGeometry x="919" y="408" width="38" height="50" as="geometry" />
        </mxCell>
        <mxCell id="xhn0Lpm8mwDRlb0D4wU6-305" value="" style="aspect=fixed;html=1;points=[];align=center;image;fontSize=12;image=img/lib/mscae/Data_Lake.svg;fillColor=none;" vertex="1" parent="WIyWlLk6GJQsqaUBKTNV-1">
          <mxGeometry x="1003" y="408" width="38" height="50" as="geometry" />
        </mxCell>
        <mxCell id="xhn0Lpm8mwDRlb0D4wU6-306" value="" style="aspect=fixed;html=1;points=[];align=center;image;fontSize=12;image=img/lib/mscae/SQL_Database_generic.svg;fillColor=none;" vertex="1" parent="WIyWlLk6GJQsqaUBKTNV-1">
          <mxGeometry x="1003" y="667" width="43.32" height="57" as="geometry" />
        </mxCell>
        <mxCell id="xhn0Lpm8mwDRlb0D4wU6-307" value="" style="aspect=fixed;html=1;points=[];align=center;image;fontSize=12;image=img/lib/mscae/App_Service_IPAddress.svg;fillColor=none;" vertex="1" parent="WIyWlLk6GJQsqaUBKTNV-1">
          <mxGeometry x="1260" y="469" width="50" height="42" as="geometry" />
        </mxCell>
        <mxCell id="xhn0Lpm8mwDRlb0D4wU6-308" value="" style="aspect=fixed;html=1;points=[];align=center;image;fontSize=12;image=img/lib/mscae/Application_Security_Groups.svg;fillColor=none;" vertex="1" parent="WIyWlLk6GJQsqaUBKTNV-1">
          <mxGeometry x="1170" y="405" width="37" height="50" as="geometry" />
        </mxCell>
        <mxCell id="xhn0Lpm8mwDRlb0D4wU6-309" value="" style="aspect=fixed;html=1;points=[];align=center;image;fontSize=12;image=img/lib/mscae/Azure_Cache_for_Redis.svg;fillColor=none;" vertex="1" parent="WIyWlLk6GJQsqaUBKTNV-1">
          <mxGeometry x="830.5" y="785" width="63" height="63" as="geometry" />
        </mxCell>
        <mxCell id="xhn0Lpm8mwDRlb0D4wU6-310" value="" style="aspect=fixed;html=1;points=[];align=center;image;fontSize=12;image=img/lib/mscae/CosmosDB.svg;fillColor=none;" vertex="1" parent="WIyWlLk6GJQsqaUBKTNV-1">
          <mxGeometry x="921" y="340" width="50" height="50" as="geometry" />
        </mxCell>
        <mxCell id="xhn0Lpm8mwDRlb0D4wU6-311" value="" style="aspect=fixed;html=1;points=[];align=center;image;fontSize=12;image=img/lib/mscae/Elastic_Database_Pools.svg;fillColor=none;" vertex="1" parent="WIyWlLk6GJQsqaUBKTNV-1">
          <mxGeometry x="422" y="787.5" width="58" height="58" as="geometry" />
        </mxCell>
      </root>
    </mxGraphModel>
  </diagram>
</mxfile>
